<svg width="750" height="500" viewBox="0 0 750 500" fill="none" xmlns="http://www.w3.org/2000/svg">
<path d="M76.6901 139.251C76.6901 139.251 65.0501 143.661 77.8001 168.451C90.5501 193.241 99.38 205.501 99.38 205.501C99.38 205.501 101.64 211.261 96.7901 212.171C91.9401 213.081 81.2501 211.411 79.1101 217.361C76.8901 223.531 81.3801 229.361 90.4701 234.361C99.5601 239.361 119.06 251.251 120.82 252.361C122.58 253.471 124.28 256.091 121.08 257.241C117.88 258.391 93.8501 261.001 95.7601 272.311C97.6701 283.621 125.31 293.591 128.31 294.731C131.31 295.871 132.03 297.151 131.79 298.791C131.55 300.431 123.39 300.551 116.59 301.571C109.79 302.591 102.08 304.951 103.73 311.401C105.38 317.851 121.73 331.331 161.49 335.091L180 335.621L190 320.001C209.41 285.151 207.58 264.001 203.2 259.001C198.82 254.001 192.51 259.001 187.82 264.001C183.13 269.001 178.41 275.691 176.92 275.001C175.43 274.311 174.79 272.951 175.55 269.831C176.31 266.711 183.76 238.291 175.55 230.301C167.34 222.311 151.55 240.641 148.79 242.631C146.03 244.621 144.79 241.631 144.91 239.631C145.03 237.631 146.32 214.801 147.3 204.441C148.28 194.081 146.04 187.091 139.7 185.441C133.59 183.841 128.91 193.591 125.41 197.071C121.91 200.551 118.41 195.421 118.41 195.421C118.41 195.421 113.3 181.211 100.1 156.651C86.9 132.091 76.4401 139.421 76.4401 139.421" fill="#F5F5F5"/>
<path d="M181 340.001C171.38 321.921 154.81 289.521 140.45 261.771C126.09 234.021 113 208.911 103.49 190.801C98.7301 181.801 94.8601 174.441 92.1801 169.351C90.8601 166.831 89.8301 164.871 89.1101 163.521C88.7701 162.861 88.5101 162.361 88.3301 161.991C88.2378 161.822 88.1544 161.648 88.0801 161.471C88.0801 161.471 88.1901 161.631 88.3801 161.971L89.2101 163.461L92.3801 169.251C95.1201 174.251 99.0401 181.571 103.85 190.611C113.48 208.681 126.56 233.751 140.93 261.491C155.3 289.231 171.8 321.671 181.33 339.791" fill="#E0E0E0"/>
<path d="M94 220.29C94.4437 220.369 94.8789 220.489 95.3 220.65C96.12 220.91 97.3 221.32 98.74 221.84C101.63 222.9 105.59 224.45 109.93 226.24L121 230.87L124.36 232.25C124.785 232.39 125.194 232.574 125.58 232.8C125.138 232.74 124.704 232.626 124.29 232.46C123.47 232.2 122.29 231.78 120.85 231.25C117.97 230.17 114.03 228.56 109.69 226.77L98.57 222.22L95.2 220.86C94.7797 220.716 94.3771 220.525 94 220.29V220.29Z" fill="#E0E0E0"/>
<path d="M126.83 231.62C126.69 231.56 129.53 223.26 133.18 213.07C136.83 202.88 139.92 194.67 140.07 194.72C140.22 194.77 137.38 203.08 133.72 213.27C130.06 223.46 127 231.67 126.83 231.62Z" fill="#E0E0E0"/>
<path d="M147 275.221C147.206 274.81 147.457 274.424 147.75 274.071L149.94 271.071C151.77 268.531 154.3 265.011 156.94 261.021C159.58 257.031 161.87 253.351 163.5 250.671L165.43 247.491C165.648 247.088 165.903 246.707 166.19 246.351C166.056 246.791 165.865 247.211 165.62 247.601C165.22 248.381 164.62 249.501 163.85 250.871C162.31 253.611 160.08 257.341 157.42 261.341C154.76 265.341 152.19 268.831 150.26 271.341C149.26 272.571 148.5 273.571 147.93 274.241C147.656 274.6 147.344 274.928 147 275.221V275.221Z" fill="#E0E0E0"/>
<path d="M115 271.52C115.418 271.466 115.842 271.466 116.26 271.52L119.69 271.78C122.58 272.03 126.57 272.41 130.97 272.86C135.37 273.31 139.36 273.75 142.24 274.1L145.65 274.54C146.071 274.572 146.487 274.652 146.89 274.78C146.471 274.828 146.049 274.828 145.63 274.78L142.2 274.52C139.31 274.27 135.32 273.89 130.91 273.44C126.5 272.99 122.53 272.55 119.65 272.2L116.24 271.76C115.819 271.73 115.402 271.65 115 271.52V271.52Z" fill="#E0E0E0"/>
<path d="M127.89 312.261C128.426 312.213 128.964 312.213 129.5 312.261L133.9 312.581C137.6 312.871 142.72 313.321 148.37 313.841C154.02 314.361 159.13 314.841 162.83 315.271L167.21 315.771C167.75 315.808 168.286 315.895 168.81 316.031C168.271 316.083 167.729 316.083 167.19 316.031L162.79 315.711C159.09 315.421 153.97 314.971 148.32 314.441C142.67 313.911 137.56 313.441 133.86 313.011L129.48 312.521C128.943 312.483 128.411 312.396 127.89 312.261V312.261Z" fill="#E0E0E0"/>
<path d="M167.85 315.71C168.112 315.192 168.417 314.698 168.76 314.23L171.39 310.32C173.61 307.01 176.66 302.43 179.88 297.32C183.1 292.21 185.88 287.44 187.88 284C188.88 282.35 189.64 281 190.26 279.92C190.525 279.408 190.833 278.92 191.18 278.46C190.99 279.007 190.746 279.533 190.45 280.03C189.95 281.03 189.2 282.45 188.24 284.2C186.32 287.69 183.58 292.47 180.34 297.63C177.1 302.79 174.01 307.34 171.71 310.63C170.55 312.25 169.6 313.55 168.93 314.44C168.606 314.893 168.245 315.318 167.85 315.71Z" fill="#E0E0E0"/>
<path d="M523.71 373.82C497.03 356.39 490.05 322.71 490.14 292.24C490.14 287.16 489.43 281.82 491.7 277.29C493.97 272.76 499.53 269.53 504.14 271.53C507.97 273.19 509.75 277.53 511.98 281.09C514.948 285.843 519.203 289.657 524.25 292.09C527.53 293.67 531.57 294.57 534.71 292.71C539.01 290.16 539.34 284.09 539.15 279.03L538.15 250.79C537.96 245.73 537.78 240.58 539.21 235.73C540.64 230.88 543.96 226.32 548.73 224.83C553.5 223.34 559.52 225.92 560.73 230.83C561.22 232.83 560.87 235.03 561.07 237.12C561.27 239.21 562.33 241.5 564.34 242.03C566.35 242.56 568.34 241.03 569.81 239.53C574.87 234.27 578.2 227.59 581.31 220.95C584.42 214.31 587.42 207.52 591.97 201.81C596.52 196.1 602.97 191.48 610.17 190.81C617.37 190.14 625.24 194.4 627.29 201.44C629.34 208.48 625.41 215.87 621.07 221.78C614.625 230.54 606.949 238.324 598.28 244.89C596.72 246.07 595.04 247.35 594.49 249.24C593.49 252.64 596.79 255.89 600.15 256.89C603.95 258.03 608.03 257.51 611.98 257.89C615.93 258.27 620.26 259.89 621.87 263.52C624.1 268.62 619.95 274.16 615.81 277.84C607.515 285.21 598.013 291.096 587.72 295.24C584.05 296.71 580.17 298.03 577.26 300.73C574.35 303.43 572.67 308.04 574.6 311.54C576.53 315.04 581.2 316.04 585.07 315.2C588.94 314.36 592.36 312.13 596.07 310.62C602.93 307.78 611.91 307.98 616.55 313.84C619.6 317.7 620.02 323.18 618.69 327.93C617.36 332.68 614.49 336.82 611.42 340.65C600.7 354.06 586.78 365.01 570.84 371.1C554.9 377.19 540.03 379.16 523.84 373.81" fill="#F5F5F5"/>
<path d="M531 354.49C535 338.99 540.8 322.37 547.46 305.19C549.14 300.897 550.807 296.66 552.46 292.48C554.11 288.32 555.74 284.19 557.58 280.24C561.134 272.692 565.103 265.348 569.47 258.24C573.59 251.41 577.75 245.08 581.68 239.24C585.61 233.4 589.41 227.94 593.07 223.15C598.803 215.564 605.13 208.445 611.99 201.86C614.42 199.53 616.35 197.79 617.68 196.62L619.2 195.3C619.368 195.145 619.549 195.005 619.74 194.88C619.597 195.059 619.44 195.226 619.27 195.38L617.81 196.76C616.52 197.97 614.62 199.76 612.24 202.13C605.495 208.795 599.261 215.959 593.59 223.56C589.98 228.36 586.23 233.78 582.32 239.68C578.41 245.58 574.32 251.92 570.2 258.74C565.872 265.854 561.933 273.199 558.4 280.74C556.58 284.66 554.97 288.74 553.32 292.93C551.67 297.12 550.03 301.34 548.32 305.63C541.67 322.8 535.86 339.37 531.83 354.81" fill="#E0E0E0"/>
<path d="M557.78 280.2C557.523 279.507 557.335 278.79 557.22 278.06C556.91 276.67 556.53 274.65 556.1 272.14C555.23 267.14 554.26 260.14 553.23 252.5C552.2 244.86 551.13 237.9 550.18 232.92C549.72 230.42 549.32 228.41 549.03 227.02C548.826 226.31 548.708 225.578 548.68 224.84C548.985 225.514 549.22 226.218 549.38 226.94C549.78 228.3 550.28 230.3 550.82 232.78C551.94 237.78 553.11 244.69 554.15 252.37C555.19 260.05 556.06 266.8 556.75 272.04C557.083 274.413 557.36 276.413 557.58 278.04C557.729 278.75 557.796 279.475 557.78 280.2V280.2Z" fill="#E0E0E0"/>
<path d="M622.37 266C621.524 266.207 620.66 266.338 619.79 266.39C618.13 266.59 615.72 266.87 612.79 267.3C606.86 268.13 598.71 269.56 589.79 271.53C580.87 273.5 572.87 275.66 567.13 277.38C564.25 278.22 561.94 278.96 560.34 279.46C559.524 279.773 558.68 280.008 557.82 280.16C558.587 279.739 559.39 279.388 560.22 279.11C561.79 278.5 564.07 277.66 566.93 276.74C572.64 274.86 580.64 272.61 589.59 270.61C597.227 268.885 604.947 267.55 612.72 266.61C615.72 266.26 618.12 266.08 619.8 265.99C620.655 265.913 621.516 265.916 622.37 266V266Z" fill="#E0E0E0"/>
<path d="M531.73 353.27C531.535 353.036 531.376 352.773 531.26 352.49L530.08 350.18C529.08 348.18 527.66 345.18 525.98 341.53C522.61 334.19 518.28 323.9 513.66 312.53C509.04 301.16 504.8 290.78 501.59 283.38L497.77 274.62L496.77 272.23C496.634 271.957 496.534 271.668 496.47 271.37C496.665 271.605 496.824 271.868 496.94 272.15C497.26 272.77 497.65 273.54 498.13 274.46C499.13 276.46 500.54 279.46 502.22 283.1C505.59 290.45 509.92 300.74 514.55 312.17C519.18 323.6 523.4 333.91 526.61 341.31L530.4 350L531.4 352.39C531.554 352.665 531.665 352.962 531.73 353.27V353.27Z" fill="#E0E0E0"/>
<path d="M617.19 322.76C616.928 322.923 616.645 323.05 616.35 323.14L613.87 324.06L604.72 327.34C596.99 330.12 586.36 334.07 574.62 338.46C562.88 342.85 552.21 346.71 544.42 349.32C540.53 350.63 537.42 351.66 535.17 352.32L532.63 353.07C532.34 353.176 532.037 353.243 531.73 353.27C531.995 353.106 532.281 352.978 532.58 352.89L535.06 351.97L544.21 348.69C551.93 345.92 562.56 341.96 574.3 337.58C586.04 333.2 596.72 329.33 604.5 326.72C608.39 325.41 611.5 324.38 613.75 323.72L616.29 322.97C616.579 322.861 616.882 322.79 617.19 322.76V322.76Z" fill="#E0E0E0"/>
<path d="M151.6 97.5498C152.4 91.6898 144.14 86.8698 137.92 86.3698C134.92 86.1298 131.92 86.5898 129.08 85.6098C123 83.4898 120.57 75.6098 114.64 73.1298C110.2 71.2598 105.09 72.9298 100.79 75.1298C96.49 77.3298 92.24 79.9998 87.44 80.2798C83.26 80.5498 78.72 78.9998 75.06 81.0398C72.34 82.5698 70.91 85.6998 68.4 87.5598C65.89 89.4198 62.74 89.7498 59.69 89.9198C56.64 90.0898 53.49 90.1098 50.69 91.3898C47.89 92.6698 45.62 95.5898 46.2 98.5898L151.6 97.5498Z" fill="#EBEBEB"/>
<path d="M564.83 151.221C565.67 145.161 557.11 140.221 550.68 139.661C547.62 139.411 544.43 139.881 541.53 138.871C535.24 136.671 532.73 128.551 526.59 125.961C522 124.021 516.71 125.741 512.26 127.961C507.81 130.181 503.42 133.021 498.44 133.341C494.12 133.621 489.44 132.011 485.64 134.131C482.82 135.701 481.35 138.951 478.75 140.861C476.15 142.771 472.89 143.141 469.75 143.311C466.61 143.481 463.33 143.511 460.45 144.831C457.57 146.151 455.21 149.181 455.8 152.281L564.83 151.221Z" fill="#F5F5F5"/>
<path d="M693.15 177.831C693.66 174.101 688.4 171.031 684.44 170.711C682.55 170.561 680.59 170.851 678.8 170.221C674.93 168.871 673.38 163.871 669.6 162.271C666.78 161.081 663.52 162.141 660.78 163.521C658.04 164.901 655.34 166.641 652.27 166.831C649.61 167.001 646.72 166.011 644.39 167.321C642.66 168.321 641.75 170.321 640.15 171.461C638.488 172.5 636.56 173.034 634.6 173.001C632.652 172.947 630.711 173.262 628.88 173.931C627.11 174.741 625.64 176.611 626.01 178.521L693.15 177.831Z" fill="#F5F5F5"/>
<path d="M673.9 92.5402C674.84 85.7502 665.25 80.1602 658.05 79.5402C654.62 79.2602 651.05 79.7902 647.79 78.6502C640.79 76.2002 637.93 67.0902 631.05 64.1902C625.91 62.0602 620 64.0002 615 66.5002C610 69.0002 605.09 72.1702 599.52 72.5002C594.67 72.8102 589.41 71.0202 585.17 73.3802C582.01 75.1502 580.36 78.7902 577.45 80.9302C574.54 83.0702 570.88 83.4802 567.35 83.6702C563.82 83.8602 560.15 83.9002 556.94 85.3702C553.73 86.8402 551.06 90.2502 551.72 93.7302L673.9 92.5402Z" fill="#EBEBEB"/>
<path d="M279.69 117.48C282.44 116.3 285.38 118.81 286.88 121.4C288.38 123.99 289.59 127.12 292.33 128.32C294.46 129.25 296.91 128.72 299.24 128.81C306.39 129.09 311.93 135.26 315.14 141.66C317.14 145.66 318.6 150.25 317.27 154.5C316.1 158.24 312.95 161.02 309.67 163.16C303.079 167.569 295.265 169.788 287.34 169.5C283.401 169.32 279.541 168.335 275.998 166.604C272.454 164.874 269.304 162.436 266.74 159.44C262.89 154.72 260.84 148.75 259.95 142.73C259.06 136.71 259.26 130.59 259.46 124.51" fill="#263238"/>
<path d="M310.63 149C310.58 149 310.63 148.35 310.51 147.22C310.342 145.614 309.892 144.049 309.18 142.6C308.134 140.452 306.587 138.586 304.67 137.16C302.302 135.429 299.563 134.275 296.67 133.79C293.62 133.24 290.58 133.52 287.85 132.94C285.444 132.413 283.219 131.261 281.4 129.6C280.181 128.505 279.087 127.277 278.14 125.94C277.81 125.47 277.56 125.1 277.4 124.83C277.314 124.701 277.24 124.563 277.18 124.42C277.579 124.865 277.953 125.333 278.3 125.82C279.299 127.091 280.417 128.263 281.64 129.32C283.433 130.902 285.608 131.988 287.95 132.47C290.58 133.01 293.61 132.72 296.76 133.28C299.727 133.775 302.533 134.976 304.94 136.78C306.901 138.264 308.467 140.208 309.5 142.44C310.193 143.938 310.6 145.552 310.7 147.2C310.733 147.643 310.733 148.087 310.7 148.53C310.7 148.689 310.676 148.848 310.63 149V149Z" fill="#455A64"/>
<path d="M338.46 135.93L327.93 175.35L306.55 152.35C296.711 145.92 285.089 142.769 273.35 143.35V143.35L240.09 141.8L221.73 148.41C217.308 150.016 213.066 152.077 209.07 154.56L173.29 179.25C165.72 184.72 159.5 188.9 158.04 197.25C156.12 208.25 161.69 220.58 173.28 222.62L223.89 223.23L225.45 255.23L305 247.83L302.87 199.54C319.11 212.05 326.74 216.92 338.96 214.54C343.03 213.75 348.85 209.47 350.74 203.13C357.49 180.53 358.64 144.98 358.64 144.98L338.46 135.93ZM213.7 192.5L218.32 191.19L218.61 192.86L213.7 192.5Z" fill="#A8171B"/>
<path d="M172.53 222.64H172.96H174.21H179.04L196.82 222.59H255.69L255.43 222.84C255.43 222.26 255.49 221.64 255.52 221.02C255.89 213.07 256.25 205.38 256.58 198.23L256.81 198.5C238.9 196.83 223.55 194.25 212.6 192.86C207.12 192.14 202.74 191.66 199.74 191.31L196.3 190.93L195.41 190.82L195.11 190.77H195.42L196.31 190.84L199.76 191.14C202.76 191.43 207.15 191.87 212.64 192.55C223.64 193.85 238.96 196.36 256.85 198H257.09V198.24C256.76 205.38 256.41 213.08 256.09 221.03C256.09 221.65 256.03 222.27 256 222.84V223.09H255.75L196.88 222.89L179 222.76L174.17 222.7H172.92C172.789 222.69 172.658 222.67 172.53 222.64V222.64Z" fill="#263238"/>
<path d="M173.55 188.45C173.798 188.277 174.071 188.142 174.36 188.05C175.121 187.739 175.903 187.482 176.7 187.28C182.026 185.917 187.662 186.484 192.61 188.88C193.352 189.234 194.068 189.641 194.75 190.1C195.015 190.249 195.257 190.434 195.47 190.65C195.41 190.73 194.34 190.03 192.47 189.21C187.538 187.054 182.052 186.504 176.79 187.64C174.78 188.07 173.58 188.54 173.55 188.45Z" fill="#263238"/>
<path d="M184.56 179.26C185.332 179.554 186.065 179.943 186.74 180.42C188.421 181.474 190.022 182.651 191.53 183.94C193.27 185.45 194.87 186.94 195.53 188.37C195.808 188.929 195.948 189.546 195.94 190.17C195.948 190.399 195.897 190.627 195.79 190.83C195.776 190.032 195.578 189.248 195.21 188.54C194.115 186.93 192.764 185.512 191.21 184.34C189.46 182.84 187.78 181.6 186.55 180.73C185.846 180.298 185.18 179.806 184.56 179.26V179.26Z" fill="#263238"/>
<path d="M219 193.05C218.616 192.033 218.315 190.986 218.1 189.92C217.6 187.98 216.94 185.29 216.1 182.35C215.26 179.41 214.44 176.77 213.75 174.89C213.06 173.01 212.6 171.89 212.67 171.83C212.858 172.059 213.01 172.315 213.12 172.59C213.38 173.09 213.71 173.83 214.12 174.76C215.097 177.193 215.932 179.68 216.62 182.21C217.43 185.21 218.03 187.88 218.44 189.84C218.714 190.893 218.901 191.967 219 193.05V193.05Z" fill="#263238"/>
<path d="M303.9 221.94C303.76 221.94 303.19 209.94 302.62 195.11C302.05 180.28 301.71 168.25 301.86 168.25C302.01 168.25 302.58 180.25 303.14 195.09C303.7 209.93 304.05 221.94 303.9 221.94Z" fill="#263238"/>
<g opacity="0.3">
<path d="M302.29 173.76C303.12 178.92 305.29 183.76 307.08 188.67C308.87 193.58 310.08 198.93 309.02 204.04L303.02 199.23" fill="black"/>
</g>
<path d="M333.15 196.53C332.963 196.302 332.808 196.05 332.69 195.78C332.42 195.28 332.08 194.54 331.69 193.61C329.623 188.749 328.376 183.579 328 178.31C327.93 177.31 327.91 176.48 327.92 175.92C327.905 175.611 327.932 175.302 328 175C328.193 176.071 328.323 177.153 328.39 178.24C328.946 183.449 330.159 188.566 332 193.47C332.72 195.35 333.22 196.49 333.15 196.53Z" fill="#263238"/>
<path opacity="0.3" d="M214.08 175.1L215.37 192.03L218.32 191.19L214.08 175.1Z" fill="black"/>
<path d="M300.47 175C300.378 174.978 300.29 174.941 300.21 174.89L299.46 174.53C298.506 174.073 297.52 173.685 296.51 173.37C292.794 172.192 288.836 171.992 285.02 172.79C282.404 173.373 279.903 174.386 277.62 175.79C275.13 177.25 272.62 179.11 269.9 180.92C267.079 182.91 263.931 184.392 260.6 185.3C257.002 186.199 253.259 186.352 249.6 185.75C247.748 185.424 245.931 184.929 244.17 184.27C242.469 183.601 240.838 182.767 239.3 181.78C237.825 180.81 236.451 179.695 235.2 178.45C234.019 177.252 232.92 175.976 231.91 174.63C229.91 172.01 228.24 169.4 226.52 167.06C224.984 164.853 223.187 162.838 221.17 161.06C219.491 159.625 217.598 158.461 215.56 157.61C214.018 156.971 212.377 156.602 210.71 156.52C209.287 156.489 207.868 156.691 206.51 157.12L206.77 157.01L207.55 156.74C207.9 156.63 208.35 156.55 208.87 156.44C209.483 156.354 210.101 156.314 210.72 156.32C212.414 156.352 214.087 156.69 215.66 157.32C217.746 158.156 219.687 159.317 221.41 160.76C223.469 162.526 225.299 164.541 226.86 166.76C228.61 169.09 230.3 171.7 232.29 174.28C233.293 175.606 234.382 176.866 235.55 178.05C236.773 179.263 238.113 180.351 239.55 181.3C241.061 182.265 242.662 183.082 244.33 183.74C246.06 184.39 247.848 184.872 249.67 185.18C253.265 185.778 256.944 185.631 260.48 184.75C263.762 183.863 266.865 182.411 269.65 180.46C272.38 178.68 274.88 176.83 277.42 175.36C279.748 173.945 282.297 172.931 284.96 172.36C288.835 171.58 292.847 171.839 296.59 173.11C297.598 173.45 298.577 173.868 299.52 174.36L300.24 174.77L300.47 175Z" fill="#FAFAFA"/>
<path d="M320 166.83C320.095 167.233 320.132 167.647 320.11 168.06C320.128 169.193 320.034 170.325 319.83 171.44C319.529 173.097 318.993 174.703 318.24 176.21C317.316 178.043 316.211 179.778 314.94 181.39C312.616 184.337 309.647 186.712 306.26 188.33C305.244 188.816 304.19 189.22 303.11 189.54C302.719 189.679 302.313 189.769 301.9 189.81C301.9 189.71 303.58 189.28 306.1 188C309.373 186.318 312.247 183.955 314.53 181.07C315.781 179.484 316.879 177.783 317.81 175.99C318.565 174.53 319.124 172.977 319.47 171.37C319.732 169.868 319.909 168.352 320 166.83V166.83Z" fill="#FAFAFA"/>
<path d="M332.1 214.559C332.1 214.559 331.96 214.509 331.72 214.349C331.372 214.135 331.038 213.898 330.72 213.639C329.5 212.693 328.419 211.578 327.51 210.329C324.558 206.135 322.982 201.128 323 195.999C323.104 190.924 323.978 185.893 325.59 181.079C326.16 179.219 326.67 177.739 327.03 176.719C327.199 176.182 327.406 175.657 327.65 175.149C327.55 175.702 327.409 176.247 327.23 176.779C326.9 177.909 326.46 179.389 325.94 181.179C324.446 185.982 323.631 190.971 323.52 195.999C323.497 201.035 324.98 205.963 327.78 210.149C329.011 211.811 330.465 213.295 332.1 214.559V214.559Z" fill="#FAFAFA"/>
<path d="M355.68 169.77C355.368 169.985 355.033 170.162 354.68 170.299C354.04 170.599 353.11 171.009 351.93 171.449C348.839 172.629 345.546 173.186 342.24 173.089C338.901 172.961 335.682 171.809 333.02 169.789C332.229 169.175 331.523 168.459 330.92 167.66C330.68 167.381 330.485 167.067 330.34 166.729C331.217 167.746 332.191 168.674 333.25 169.499C335.891 171.369 339.017 172.435 342.25 172.57C345.496 172.656 348.73 172.158 351.8 171.1C354.22 170.32 355.64 169.69 355.68 169.77Z" fill="#FAFAFA"/>
<path d="M206.89 191.85C206.8 191.85 206.4 190.29 205.47 187.85C203.043 181.421 199.182 175.631 194.18 170.92C192.27 169.12 190.97 168.13 191.02 168.06C191.379 168.222 191.715 168.43 192.02 168.68C192.869 169.301 193.684 169.969 194.46 170.68C199.658 175.296 203.577 181.176 205.84 187.75C206.185 188.734 206.479 189.735 206.72 190.75C206.82 191.108 206.877 191.478 206.89 191.85V191.85Z" fill="#FAFAFA"/>
<path d="M218.57 193.569C218.51 193.758 218.422 193.936 218.31 194.099C218.029 194.595 217.711 195.07 217.36 195.519C216.029 197.169 214.375 198.53 212.5 199.519C209.729 200.955 206.744 201.932 203.66 202.409C200.21 202.999 196.36 203.239 192.41 203.879C190.486 204.176 188.592 204.641 186.75 205.269C185.046 205.875 183.418 206.677 181.9 207.659C179.328 209.335 177.09 211.475 175.3 213.969C174.107 215.666 173.126 217.503 172.38 219.439C171.84 220.809 171.67 221.609 171.61 221.589C171.621 221.392 171.658 221.197 171.72 221.009C171.838 220.452 171.995 219.904 172.19 219.369C172.872 217.382 173.817 215.495 175 213.759C176.776 211.187 179.03 208.98 181.64 207.259C183.183 206.243 184.841 205.414 186.58 204.789C188.448 204.146 190.369 203.668 192.32 203.359C196.32 202.719 200.16 202.499 203.58 201.939C206.622 201.488 209.574 200.563 212.33 199.199C214.18 198.266 215.833 196.986 217.2 195.429C218.14 194.269 218.52 193.539 218.57 193.569Z" fill="#FAFAFA"/>
<path d="M239.92 196.319C240.079 196.636 240.197 196.972 240.27 197.319C240.532 198.231 240.729 199.16 240.86 200.099C241.055 201.497 241.139 202.908 241.11 204.319C241.041 207.785 240.29 211.204 238.9 214.379C238.339 215.673 237.67 216.918 236.9 218.099C236.387 218.898 235.819 219.66 235.2 220.379C234.75 220.879 234.5 221.149 234.47 221.119C234.44 221.089 235.36 219.939 236.59 217.909C237.297 216.713 237.922 215.47 238.46 214.189C239.1 212.62 239.612 211.001 239.99 209.349C240.343 207.687 240.557 205.998 240.63 204.299C240.685 202.914 240.638 201.527 240.49 200.149C240.23 197.769 239.82 196.339 239.92 196.319Z" fill="#FAFAFA"/>
<path d="M302.24 211.48C300.089 210.562 297.831 209.917 295.52 209.56C293.184 209.368 290.833 209.463 288.52 209.84C289.144 209.516 289.822 209.306 290.52 209.22C293.869 208.577 297.335 208.99 300.44 210.4C301.1 210.649 301.71 211.015 302.24 211.48V211.48Z" fill="#FAFAFA"/>
<path d="M348.88 111.119L338.82 136.099L357.75 144.579L362.61 123.339L348.88 111.119Z" fill="#FFBE9D"/>
<path d="M370.6 135.78L353.6 114.68C350.17 109.94 344.71 102.31 344.46 101.68C344.11 100.68 343.98 93.86 344.14 92.13C344.132 89.91 343.988 87.6925 343.71 85.49L329.71 90.8L326.72 80L324.8 80.6C324.8 80.6 319.73 89.37 321.3 94.36C322.87 99.35 329.5 101.61 331.14 102.62C332.78 103.63 339.01 106.31 346.04 116.92L347.17 118.56L350.02 122.68L363.02 141.38C363.377 141.91 363.838 142.363 364.375 142.71C364.911 143.057 365.513 143.292 366.143 143.4C366.773 143.508 367.419 143.488 368.041 143.339C368.663 143.191 369.248 142.918 369.762 142.537C370.275 142.157 370.706 141.676 371.028 141.123C371.351 140.571 371.558 139.96 371.637 139.325C371.716 138.691 371.666 138.047 371.49 137.432C371.313 136.818 371.014 136.246 370.61 135.75L370.6 135.78Z" fill="#455A64"/>
<path d="M337.21 87.9092L333.55 77.5892L334.87 77.1592C334.87 77.1592 341.33 81.1592 342.72 85.8192L337.21 87.9092Z" fill="#455A64"/>
<path d="M333.3 101.54L333.46 101.47L333.9 101.27L335.55 100.53L341.55 97.8099L341.4 97.7199C341.365 98.3294 341.365 98.9404 341.4 99.5499C341.411 100.239 341.561 100.919 341.84 101.55C342.53 102.73 343.37 103.89 344.23 105.13C345.96 107.58 347.88 110.24 349.91 113C350.202 113.329 350.402 113.729 350.49 114.16C350.537 114.47 350.508 114.787 350.406 115.084C350.303 115.381 350.131 115.649 349.903 115.865C349.676 116.081 349.399 116.238 349.097 116.325C348.796 116.411 348.478 116.423 348.17 116.36C347.784 116.272 347.434 116.066 347.17 115.77C346.92 115.46 346.67 115.09 346.42 114.77L344.95 112.77L339.88 105.93C339.525 105.464 339.104 105.053 338.63 104.71C338.19 104.38 337.76 104.1 337.36 103.83C336.55 103.31 335.83 102.89 335.24 102.56C334.65 102.23 334.18 101.98 333.87 101.81L333.5 101.63H333.37C333.37 101.63 333.37 101.63 333.49 101.7L333.84 101.91L335.18 102.7C335.77 103.05 336.47 103.48 337.27 104.01C337.67 104.28 338.1 104.57 338.52 104.9C338.983 105.235 339.392 105.639 339.73 106.1L344.73 112.97L346.19 114.97C346.44 115.31 346.67 115.64 346.95 115.97C347.265 116.309 347.677 116.543 348.13 116.64C348.48 116.713 348.843 116.701 349.187 116.603C349.532 116.506 349.847 116.327 350.108 116.082C350.368 115.836 350.565 115.531 350.682 115.193C350.799 114.855 350.833 114.494 350.78 114.14C350.684 113.666 350.467 113.225 350.15 112.86C348.15 110.1 346.15 107.45 344.45 105C343.6 103.77 342.74 102.6 342.07 101.46C341.81 100.876 341.664 100.248 341.64 99.6099C341.6 99.0072 341.6 98.4026 341.64 97.7999V97.6299L341.49 97.6999L335.49 100.56L333.89 101.34L333.48 101.54H333.3Z" fill="#263238"/>
<g opacity="0.3">
<path d="M332 96.5092L338.29 94.1792L338.25 90.6592L331.9 93.0792L332 96.5092Z" fill="black"/>
</g>
<path d="M336.91 90.4492C336.652 91.29 336.567 92.1746 336.66 93.0492C336.585 93.9239 336.687 94.8048 336.96 95.6392C337.225 94.7998 337.31 93.9138 337.21 93.0392C337.285 92.1645 337.183 91.2836 336.91 90.4492V90.4492Z" fill="#263238"/>
<path d="M335 91.1494C334.743 91.9905 334.661 92.8755 334.76 93.7494C334.679 94.6242 334.781 95.5063 335.06 96.3394C335.319 95.4987 335.401 94.6133 335.3 93.7394C335.381 92.8646 335.279 91.9825 335 91.1494Z" fill="#263238"/>
<path d="M333.18 91.5996C332.921 92.4402 332.835 93.325 332.93 94.1996C332.855 95.0743 332.957 95.9552 333.23 96.7896C333.488 95.9488 333.573 95.0643 333.48 94.1896C333.555 93.3149 333.453 92.434 333.18 91.5996V91.5996Z" fill="#263238"/>
<path d="M339.47 134.49L340.15 129.6L340.61 116.6L340.11 107.51C340.11 107.51 343.11 107.74 344.78 111.66C346.45 115.58 346.48 121.57 346.48 121.57C346.48 121.57 359.18 126.57 354.7 138.57" fill="#FFBE9D"/>
<path d="M356.66 114.659C356.774 113.646 356.572 112.622 356.08 111.729C355.752 111.259 355.333 110.861 354.846 110.558C354.36 110.255 353.817 110.055 353.25 109.969C352.226 109.769 351.174 109.769 350.15 109.969L352.54 113.299C352.057 115.304 351.703 117.339 351.48 119.389C351.35 120.439 351.36 121.749 352.27 122.289C352.665 122.466 353.106 122.51 353.528 122.414C353.95 122.318 354.33 122.089 354.61 121.759C355.146 121.069 355.515 120.265 355.69 119.409C356.19 117.867 356.515 116.274 356.66 114.659Z" fill="#FFBE9D"/>
<path d="M360.25 118.51C360.355 117.497 360.153 116.476 359.67 115.58C359.341 115.108 358.92 114.709 358.432 114.407C357.943 114.104 357.398 113.904 356.83 113.82C355.81 113.619 354.76 113.619 353.74 113.82L356.12 117.15C355.641 119.156 355.287 121.19 355.06 123.24C354.94 124.24 354.94 125.6 355.86 126.14C356.255 126.316 356.696 126.36 357.118 126.264C357.54 126.169 357.92 125.939 358.2 125.61C358.733 124.919 359.099 124.115 359.27 123.26C359.773 121.718 360.102 120.125 360.25 118.51V118.51Z" fill="#FFBE9D"/>
<path d="M364 122.309C364.112 121.293 363.909 120.267 363.42 119.369C363.092 118.899 362.673 118.501 362.186 118.198C361.7 117.896 361.156 117.695 360.59 117.609C359.565 117.419 358.515 117.419 357.49 117.609L359.88 120.939C359.397 122.945 359.043 124.979 358.82 127.029C358.69 128.089 358.7 129.389 359.61 129.939C360.006 130.115 360.448 130.157 360.87 130.06C361.292 129.962 361.671 129.731 361.95 129.399C362.48 128.691 362.839 127.869 363 126.999C363.506 125.478 363.841 123.905 364 122.309Z" fill="#FFBE9D"/>
<path d="M356.4 112.31C356.822 113.752 356.888 115.276 356.59 116.75C356.462 118.245 355.979 119.689 355.18 120.96C355.03 120.9 355.75 119.06 356.08 116.67C356.41 114.28 356.25 112.33 356.4 112.31Z" fill="#EB996E"/>
<path d="M360.24 117.529C360.52 118.819 360.523 120.154 360.249 121.445C359.975 122.736 359.43 123.954 358.65 125.019C358.51 124.939 359.32 123.399 359.74 121.339C360.16 119.279 360.08 117.539 360.24 117.529Z" fill="#EB996E"/>
<path d="M345 112.31C345.251 113.167 345.435 114.043 345.55 114.93C345.84 116.58 346.23 118.93 346.67 121.7L346.51 121.5C348.389 122.151 350.103 123.204 351.533 124.585C352.963 125.967 354.075 127.644 354.79 129.5C355.4 131.026 355.738 132.647 355.79 134.29C355.819 135.391 355.715 136.493 355.48 137.57C355.425 137.971 355.31 138.362 355.14 138.73C355.354 137.266 355.448 135.788 355.42 134.31C355.32 132.717 354.955 131.152 354.34 129.68C353.609 127.871 352.497 126.241 351.08 124.9C349.723 123.604 348.108 122.609 346.34 121.98H346.2V121.84C345.8 119.07 345.48 116.71 345.27 115.04C345.115 114.137 345.024 113.225 345 112.31V112.31Z" fill="#EB996E"/>
<path d="M343.68 85.46L343.46 85.55L342.82 85.79L340.46 86.67L332.7 89.67L324.95 92.67L322.59 93.55L321.94 93.78C321.8 93.84 321.72 93.86 321.72 93.85L321.93 93.75L322.56 93.48L324.89 92.48C326.89 91.69 329.6 90.61 332.62 89.48C335.64 88.35 338.4 87.29 340.41 86.58C341.41 86.23 342.22 85.95 342.79 85.77L343.44 85.56C343.514 85.5136 343.595 85.4798 343.68 85.46V85.46Z" fill="#263238"/>
<path d="M256.83 201.819C256.83 201.819 269.29 198.409 271.42 198.329C273.05 198.279 282.5 199.879 286.85 200.629C287.665 200.751 288.4 201.186 288.898 201.841C289.397 202.497 289.62 203.322 289.52 204.139C289.499 204.241 289.472 204.341 289.44 204.439C289.251 204.939 288.926 205.376 288.502 205.701C288.078 206.026 287.572 206.226 287.04 206.279C287.668 206.592 288.182 207.094 288.509 207.715C288.836 208.336 288.959 209.044 288.86 209.739C288.52 212.199 285.47 212.269 285.47 212.269C285.47 212.269 285.62 212.429 285.83 212.709C286.132 213.14 286.315 213.643 286.362 214.167C286.408 214.692 286.315 215.219 286.094 215.696C285.872 216.173 285.528 216.584 285.098 216.886C284.667 217.189 284.164 217.372 283.64 217.419L282.25 217.519C282.714 217.798 283.092 218.199 283.343 218.679C283.593 219.159 283.707 219.699 283.67 220.239C283.13 223.469 275.75 222.979 275.75 222.979L255.93 222.599L256.83 201.819Z" fill="#FFBE9D"/>
<path d="M285.76 196.549C285.52 197.549 284.92 199.839 282.95 200.549L272.95 198.629C272.95 198.629 280.82 197.189 282.07 196.069C282.573 195.614 283.126 195.218 283.72 194.889C283.968 194.764 284.248 194.713 284.524 194.743C284.801 194.773 285.063 194.882 285.278 195.057C285.494 195.233 285.655 195.467 285.74 195.732C285.825 195.997 285.832 196.281 285.76 196.549Z" fill="#FFBE9D"/>
<path d="M277.71 199.29C277.71 199.46 279.71 199.97 282.24 200.29C284.77 200.61 286.83 200.85 286.86 200.66C286.89 200.47 284.86 199.98 282.33 199.66C279.8 199.34 277.74 199.11 277.71 199.29Z" fill="#EB996E"/>
<path d="M279.11 205.229C279.11 205.399 280.79 205.979 283 206.229C285.21 206.479 287 206.319 287 206.139C287 205.959 285.23 205.829 283.06 205.579C280.89 205.329 279.15 205.049 279.11 205.229Z" fill="#EB996E"/>
<path d="M274.11 203.739C273.95 203.809 274.06 204.389 274.57 204.839C275.08 205.289 275.66 205.329 275.71 205.159C275.76 204.989 275.4 204.699 275.01 204.349C274.62 203.999 274.28 203.659 274.11 203.739Z" fill="#EB996E"/>
<path d="M277 211.42C277 211.6 278.91 211.98 281.29 212.26C283.67 212.54 285.64 212.63 285.67 212.45C285.7 212.27 283.77 211.9 281.37 211.61C278.97 211.32 277.05 211.24 277 211.42Z" fill="#EB996E"/>
<path d="M271.71 207.869C271.63 207.869 271.45 208.009 271.34 208.399C271.211 208.917 271.286 209.465 271.55 209.929C271.811 210.405 272.244 210.763 272.76 210.929C273.14 211.029 273.39 210.929 273.4 210.879C273.41 210.829 272.58 210.459 272.12 209.629C271.66 208.799 271.88 207.929 271.71 207.869Z" fill="#EB996E"/>
<path d="M274.57 217.409C274.57 217.589 276.33 217.789 278.5 217.849C280.67 217.909 282.44 217.849 282.44 217.639C282.44 217.429 280.69 217.259 278.52 217.199C276.35 217.139 274.58 217.229 274.57 217.409Z" fill="#EB996E"/>
<path d="M269.46 213.399C269.38 213.399 269.22 213.569 269.17 213.959C269.132 214.465 269.247 214.97 269.5 215.409C270.1 216.409 270.88 216.859 270.99 216.749C271.1 216.639 270.57 215.929 270.07 215.089C269.57 214.249 269.62 213.449 269.46 213.399Z" fill="#EB996E"/>
<path d="M217.87 103.289C217.47 100.079 213.95 97.8292 210.76 98.2892C209.174 98.6121 207.711 99.3738 206.537 100.488C205.363 101.601 204.526 103.023 204.12 104.589C203.344 107.75 203.697 111.082 205.12 114.009C206.12 116.329 207.88 118.619 210.37 119.129C211.527 119.282 212.704 119.136 213.788 118.703C214.872 118.271 215.826 117.567 216.56 116.659C218.009 114.827 219.126 112.756 219.86 110.539L217.87 103.289Z" fill="#263238"/>
<path d="M221.93 102.589C221.399 102.309 220.786 102.226 220.199 102.356C219.613 102.486 219.092 102.82 218.73 103.299C218.033 104.281 217.681 105.466 217.73 106.669C217.673 108.665 218.056 110.648 218.85 112.479C218.934 112.767 219.08 113.033 219.277 113.259C219.473 113.485 219.717 113.666 219.99 113.789C220.27 113.853 220.563 113.833 220.833 113.734C221.102 113.635 221.338 113.459 221.51 113.229C221.853 112.766 222.083 112.228 222.18 111.659C222.98 108.318 222.81 104.817 221.69 101.569" fill="#A8171B"/>
<path d="M278.59 87.1497C284.21 84.3997 287.44 81.5496 286.97 79.2196C286.5 76.8896 275.19 73.2797 272.54 72.2997C266.29 69.9797 260.38 75.4997 250.54 77.4797C231.37 81.3297 216.61 88.3497 217.54 93.1597C218 95.4797 222.04 96.8596 228.24 97.2396" fill="#A8171B"/>
<g opacity="0.4">
<path d="M275.24 87.6492C280.24 85.2092 283.24 82.6492 282.67 80.6492C281.15 74.9892 267.35 75.6492 250.35 79.1092C233.35 82.5692 220.28 88.7092 221.14 92.9992C221.55 95.0592 225.14 96.2792 230.62 96.6192" fill="black"/>
</g>
<path d="M230.65 94.8195C230.088 91.663 230.164 88.4259 230.874 85.2993C231.584 82.1727 232.913 79.22 234.783 76.6156C236.653 74.0111 239.026 71.8078 241.761 70.1356C244.497 68.4634 247.539 67.3562 250.71 66.8795C263.4 64.9895 275.23 73.8795 277.82 86.4295C280.09 97.4295 282.13 108.58 282.3 112.65C282.8 124.93 275.87 130.09 273.04 131.65C272.015 132.094 270.945 132.429 269.85 132.65C269.839 132.652 269.829 132.656 269.82 132.663C269.811 132.669 269.804 132.677 269.798 132.687C269.793 132.696 269.789 132.706 269.788 132.717C269.786 132.728 269.787 132.739 269.79 132.75L273.27 146.69C275 155.86 270.27 164.36 261.14 166.2C252.01 168.04 244.36 161.34 242.45 152.2L230.65 94.8195Z" fill="#FFBE9D"/>
<path d="M274.07 94.0796C274.165 94.578 274.067 95.0939 273.796 95.5228C273.525 95.9517 273.101 96.2615 272.61 96.3895C272.37 96.4575 272.12 96.4768 271.872 96.4464C271.625 96.4161 271.386 96.3366 271.17 96.2127C270.954 96.0888 270.765 95.923 270.614 95.725C270.463 95.5269 270.353 95.3007 270.29 95.0595C270.195 94.5611 270.293 94.0452 270.564 93.6163C270.835 93.1874 271.259 92.8776 271.75 92.7495C271.99 92.6816 272.241 92.6623 272.488 92.6927C272.735 92.723 272.974 92.8025 273.19 92.9264C273.406 93.0503 273.595 93.2161 273.746 93.4141C273.898 93.6122 274.008 93.8384 274.07 94.0796V94.0796Z" fill="#263238"/>
<path d="M275.17 89.9195C274.98 90.2095 273.31 89.4295 271.25 89.8495C269.19 90.2695 267.89 91.5995 267.62 91.3995C267.35 91.1995 267.62 90.8095 268.2 90.1995C268.965 89.3976 269.961 88.8555 271.05 88.6495C272.121 88.4294 273.235 88.5555 274.23 89.0095C275 89.3695 275.26 89.7795 275.17 89.9195Z" fill="#263238"/>
<path d="M253.81 98.1492C253.905 98.6476 253.807 99.1635 253.536 99.5925C253.265 100.021 252.841 100.331 252.35 100.459C252.108 100.53 251.855 100.552 251.605 100.523C251.355 100.495 251.113 100.416 250.893 100.292C250.674 100.168 250.482 100.001 250.329 99.8012C250.175 99.6015 250.063 99.373 250 99.1292C249.905 98.6308 250.003 98.1149 250.274 97.686C250.545 97.2571 250.969 96.9472 251.46 96.8192C251.702 96.7467 251.955 96.7238 252.206 96.7519C252.457 96.78 252.699 96.8585 252.919 96.9828C253.138 97.107 253.33 97.2744 253.484 97.4749C253.637 97.6754 253.748 97.9047 253.81 98.1492V98.1492Z" fill="#263238"/>
<path d="M255 94.37C254.82 94.67 253.15 93.89 251.09 94.3C249.03 94.71 247.73 96.06 247.45 95.85C247.32 95.76 247.45 95.26 248.03 94.65C248.801 93.856 249.795 93.3153 250.88 93.1C251.952 92.8823 253.066 93.0119 254.06 93.47C254.77 93.83 255.08 94.23 255 94.37Z" fill="#263238"/>
<path d="M265.54 108.15C266.557 107.595 267.638 107.168 268.76 106.88C269.28 106.72 269.76 106.51 269.76 106.14C269.696 105.588 269.465 105.069 269.1 104.65L266.73 100.95C263.43 95.68 260.92 91.3 261.13 91.17C261.34 91.04 264.2 95.17 267.51 100.48L269.81 104.21C270.267 104.776 270.511 105.483 270.5 106.21C270.462 106.411 270.379 106.6 270.256 106.764C270.132 106.927 269.973 107.059 269.79 107.15C269.515 107.292 269.223 107.397 268.92 107.46C267.828 107.835 266.692 108.067 265.54 108.15V108.15Z" fill="#263238"/>
<path d="M269.77 132.679C269.77 132.679 261.94 134.929 250.77 130.939C250.77 130.939 256.03 140.829 270.69 136.429L269.77 132.679Z" fill="#EB996E"/>
<path d="M265.66 113.3C265.168 112.885 264.579 112.602 263.947 112.477C263.315 112.353 262.663 112.392 262.05 112.59C261.605 112.721 261.191 112.941 260.834 113.237C260.476 113.532 260.182 113.897 259.97 114.31C259.76 114.708 259.679 115.161 259.738 115.608C259.797 116.054 259.994 116.47 260.3 116.8C260.703 117.104 261.189 117.28 261.693 117.305C262.198 117.33 262.699 117.203 263.13 116.94C264.038 116.405 264.828 115.691 265.45 114.84C265.654 114.631 265.814 114.382 265.92 114.11C265.971 113.982 265.984 113.841 265.955 113.706C265.927 113.57 265.859 113.447 265.76 113.35" fill="#EB996E"/>
<path d="M259.76 110.8C260.09 110.71 260.54 112.95 262.76 114.15C264.98 115.35 267.33 114.63 267.41 114.94C267.47 115.07 266.97 115.48 265.97 115.71C264.661 115.993 263.294 115.805 262.11 115.18C260.978 114.575 260.123 113.558 259.72 112.34C259.46 111.42 259.6 110.82 259.76 110.8Z" fill="#263238"/>
<path d="M254.45 87.7194C254.36 88.3194 252.25 88.4694 249.89 89.2494C247.53 90.0294 245.7 91.0794 245.28 90.6394C245.09 90.4294 245.33 89.8294 246.01 89.1294C246.929 88.2478 248.038 87.5892 249.251 87.2042C250.465 86.8193 251.751 86.7185 253.01 86.9094C254 87.0894 254.48 87.4394 254.45 87.7194Z" fill="#263238"/>
<path d="M273.35 84.7594C273.08 85.2994 271.56 85.0994 269.85 85.4194C268.14 85.7394 266.76 86.4194 266.32 85.9394C266.13 85.7294 266.26 85.2194 266.81 84.6494C267.546 83.9399 268.476 83.4658 269.482 83.2877C270.489 83.1095 271.525 83.2355 272.46 83.6494C273.16 84.0494 273.46 84.4994 273.35 84.7594Z" fill="#263238"/>
<path d="M259.63 75.0998C258.85 76.915 257.678 78.5351 256.198 79.8438C254.718 81.1526 252.967 82.1177 251.07 82.6698C248.58 83.3798 245.62 83.5098 244.07 85.5598C242.92 87.0598 242.92 89.0998 242.66 90.9698C242.25 93.8198 242.97 97.0998 240.8 98.9698C239.1 100.44 237.5 100.4 236.46 102.39C235.42 104.38 235.62 107.19 236.05 109.52C236.48 111.85 237.05 115.52 235.14 117C233.36 108.56 228.8 99.5298 227.03 91.0898C226.685 89.8477 226.577 88.552 226.71 87.2698C227.21 84.4098 229.95 82.5498 232.54 81.2698C239.89 77.5898 247.99 75.6998 255.99 73.8398" fill="#263238"/>
<path d="M281.74 77.9193C281.74 77.9193 272.68 58.5093 272.05 57.5993C271.42 56.6893 263.82 48.9293 249.41 49.1593L237.92 51.4693C237.92 51.4693 222.66 59.9993 220.48 64.5593C218.3 69.1193 220.9 88.6793 220.9 88.6793L251.71 75.2093L274.71 76.1493L281.74 77.9193Z" fill="#A8171B"/>
<path d="M245.18 47.5796L248.35 46.9396C248.984 46.8084 249.642 46.8665 250.243 47.1065C250.844 47.3465 251.361 47.758 251.73 48.2896C252.359 49.2354 252.826 50.2798 253.11 51.3796C254.06 54.9096 259.79 79.2496 259.79 79.2496L245.25 81.4796L239.64 51.1296L235 53.1896L234.91 52.2896C234.85 51.7437 234.958 51.1925 235.22 50.7096V50.7096C235.402 50.3778 235.654 50.0891 235.957 49.8631C236.261 49.6371 236.61 49.479 236.98 49.3996L245.18 47.5796Z" fill="#A8171B"/>
<path d="M278.11 80.77L275.17 74L251.24 71.5L225.77 84.91L227.37 92.91C227.37 92.91 248.32 79.2 278.11 80.77Z" fill="#455A64"/>
<path d="M272.54 72.3001L273.68 73.03L282.42 77.18C282.42 77.18 266.63 75.1801 251.16 78.4401C235.69 81.7001 219 90.52 219 90.52L228 82.28C229.271 80.2276 230.939 78.4501 232.908 77.0521C234.876 75.6542 237.104 74.6641 239.46 74.14L258.85 69.85C261.18 69.33 263.591 69.2789 265.941 69.6995C268.291 70.1201 270.535 71.0041 272.54 72.3001V72.3001Z" fill="#A8171B"/>
<path d="M280.26 77.9094C280.26 77.9094 280.08 77.7694 279.69 77.5794C279.128 77.2958 278.538 77.0713 277.93 76.9094C275.697 76.3192 273.4 76.0035 271.09 75.9694C263.49 75.8543 255.917 76.9135 248.64 79.1094C244.38 80.2894 240.29 81.3294 236.64 82.6194C233.439 83.7787 230.304 85.114 227.25 86.6194C225.95 87.2694 224.8 87.9294 223.82 88.5494C222.92 89.0298 222.146 89.7149 221.56 90.5494C221.208 91.1084 221.072 91.7773 221.18 92.4294C221.28 92.8694 221.45 93.0494 221.47 93.0394C221.353 92.6509 221.326 92.2407 221.392 91.8404C221.458 91.44 221.615 91.06 221.85 90.7294C222.456 89.9942 223.217 89.4032 224.08 88.9994C225.08 88.4194 226.23 87.8194 227.53 87.1994C230.14 85.9994 233.34 84.6294 236.91 83.3694C240.48 82.1094 244.6 81.1194 248.91 79.9394C256.119 77.7821 263.596 76.651 271.12 76.5794C273.39 76.5594 275.656 76.7773 277.88 77.2294C279.42 77.5694 280.21 77.9994 280.26 77.9094Z" fill="#263238"/>
<path d="M278 80.5498C280.77 86.7398 290.43 95.5498 281.17 104.1C281.17 104.1 278.25 90.0998 276.01 84.8698C275.441 83.2846 274.525 81.8463 273.33 80.6598" fill="#263238"/>
<path d="M230.51 92.1299C227.354 92.7394 224.554 94.5415 222.691 97.1616C220.829 99.7818 220.048 103.019 220.51 106.2C220.82 107.85 221.51 109.48 221.3 111.2C221.09 112.92 220.22 114.27 219.81 115.86C219 119 218.81 124.17 219.92 127.24C222.46 134.54 231.72 143.54 240.11 141.86" fill="#263238"/>
<path d="M236.72 135.809C237.593 135.977 238.494 135.931 239.346 135.675C240.197 135.419 240.974 134.961 241.61 134.339C242.859 133.069 243.752 131.493 244.2 129.769C244.987 127.023 245.102 124.127 244.534 121.326C243.967 118.526 242.734 115.903 240.94 113.679C243.027 109.908 244.149 105.679 244.204 101.37C244.26 97.06 243.249 92.8034 241.26 88.9795L229.5 92.4595L236.72 135.809Z" fill="#263238"/>
<path d="M218 110.479C217.526 111.18 216.887 111.753 216.14 112.149C214.379 113.242 212.296 113.698 210.24 113.439C208.179 113.206 206.264 112.258 204.83 110.759C204.198 110.173 203.791 109.384 203.68 108.529C204.057 109.257 204.532 109.929 205.09 110.529C206.528 111.865 208.352 112.712 210.3 112.949C212.252 113.18 214.227 112.795 215.95 111.849C217.27 111.109 217.93 110.409 218 110.479Z" fill="#455A64"/>
<path d="M217.1 108.899C216.473 109.296 215.766 109.549 215.03 109.639C213.261 109.99 211.432 109.883 209.716 109.33C207.999 108.777 206.452 107.796 205.22 106.479C204.679 105.97 204.255 105.349 203.98 104.659C204.05 104.659 204.52 105.309 205.48 106.219C206.731 107.409 208.233 108.301 209.876 108.831C211.519 109.361 213.26 109.514 214.97 109.279C216.28 109.099 217.07 108.819 217.1 108.899Z" fill="#455A64"/>
<path d="M242.63 92.2197C242.662 92.6144 242.638 93.0116 242.56 93.3997C242.417 94.4724 242.166 95.5278 241.81 96.5497C240.651 99.9663 238.475 102.947 235.574 105.092C232.673 107.237 229.186 108.443 225.58 108.55C224.499 108.592 223.416 108.521 222.35 108.34C221.955 108.3 221.567 108.202 221.2 108.05C222.649 108.188 224.105 108.231 225.56 108.18C229.065 107.979 232.437 106.762 235.262 104.677C238.087 102.593 240.244 99.7301 241.47 96.4397C241.939 95.0569 242.326 93.6478 242.63 92.2197V92.2197Z" fill="#455A64"/>
<path d="M243 109.85C243 109.85 242.83 110.13 242.42 110.54C241.819 111.121 241.147 111.625 240.42 112.04C238.02 113.392 235.304 114.083 232.55 114.04C229.841 113.974 227.152 113.558 224.55 112.8C223.55 112.52 222.75 112.28 222.2 112.09C221.906 112.019 221.623 111.908 221.36 111.76C222.467 111.915 223.563 112.142 224.64 112.44C227.24 113.087 229.902 113.449 232.58 113.52C235.25 113.554 237.889 112.94 240.27 111.73C241.219 111.162 242.131 110.534 243 109.85V109.85Z" fill="#455A64"/>
<path d="M282.25 75.8995C282.01 75.8597 281.775 75.7926 281.55 75.6995L279.61 74.9995L272.48 72.4395L270.64 70.7895C270.019 70.171 269.327 69.6273 268.58 69.1695C267.769 68.7201 266.873 68.4443 265.95 68.3595C264.942 68.3238 263.934 68.4179 262.95 68.6395C258.87 69.3195 254.4 70.2695 249.74 71.3495C245.41 72.3495 241.27 73.3495 237.49 74.3495C236.57 74.5344 235.688 74.8724 234.88 75.3495C234.142 75.7924 233.503 76.381 233 77.0795C232.07 78.5295 231.25 79.9895 230.47 81.2795L223.54 86.3995L221.63 87.7795C221.416 87.9483 221.189 88.0988 220.95 88.2295C221.138 88.0296 221.346 87.8487 221.57 87.6895L223.41 86.2295L230.13 80.9995V81.0595C230.91 79.7395 231.68 78.3095 232.64 76.7895C233.171 76.0271 233.851 75.3806 234.64 74.8895C235.489 74.4079 236.411 74.07 237.37 73.8895C241.15 72.8895 245.28 71.8895 249.63 70.8895C254.29 69.8095 258.77 68.8895 262.88 68.1995C263.888 67.9816 264.92 67.8975 265.95 67.9495C266.935 68.0416 267.889 68.3416 268.75 68.8295C269.522 69.3094 270.234 69.8801 270.87 70.5295L272.68 72.1995H272.62L279.7 74.9095L281.61 75.6695C281.828 75.7312 282.042 75.8081 282.25 75.8995V75.8995Z" fill="#263238"/>
<path d="M243.58 72.5391C243.45 72.2172 243.356 71.8818 243.3 71.5391C243.15 70.8891 242.95 69.9591 242.71 68.7991C242.24 66.4891 241.62 63.2891 240.96 59.7991C240.65 58.0291 240.34 56.3491 240.06 54.7991C239.93 54.0391 239.81 53.3091 239.69 52.6191C239.671 52.4874 239.624 52.3614 239.552 52.2495C239.48 52.1375 239.385 52.0423 239.273 51.9703C239.161 51.8983 239.035 51.8511 238.904 51.8319C238.772 51.8127 238.638 51.822 238.51 51.8591L235.94 52.8591C235.626 53.0178 235.288 53.1258 234.94 53.1791C235.219 52.9769 235.521 52.8091 235.84 52.6791C236.44 52.3791 237.27 51.9691 238.38 51.4691C238.558 51.4103 238.746 51.39 238.933 51.4096C239.119 51.4292 239.299 51.4883 239.461 51.5829C239.623 51.6775 239.762 51.8054 239.871 51.9582C239.979 52.1111 240.054 52.2852 240.09 52.4691C240.23 53.1591 240.37 53.8891 240.52 54.6491C240.81 56.1891 241.12 57.8691 241.46 59.6491C242.11 63.1891 242.67 66.3991 243.05 68.7291C243.24 69.8891 243.39 70.8391 243.48 71.4891C243.566 71.832 243.6 72.1861 243.58 72.5391V72.5391Z" fill="#263238"/>
<path d="M257.47 69.4499C257.013 68.5289 256.661 67.5595 256.42 66.5599C255.87 64.7399 255.24 62.1999 254.57 59.3899C253.9 56.5799 253.33 54.0199 252.94 52.1699C252.679 51.1871 252.505 50.1832 252.42 49.1699C252.798 50.1431 253.093 51.1467 253.3 52.1699C253.78 53.9999 254.41 56.5399 255.08 59.3499C255.75 62.1599 256.31 64.5499 256.78 66.5499C257.068 67.502 257.298 68.4704 257.47 69.4499Z" fill="#263238"/>
<path d="M282 109.639C284.053 109.549 286.069 109.067 287.94 108.219C289.967 107.352 291.735 105.974 293.07 104.219C293.803 103.097 294.293 101.835 294.51 100.512C294.727 99.1897 294.666 97.8365 294.33 96.5392C294.04 95.2283 293.49 93.9887 292.714 92.8931C291.938 91.7975 290.95 90.868 289.81 90.1592C287.818 89.1621 285.776 88.2708 283.69 87.4892C282.277 86.8796 281.017 85.9643 280 84.8092C279.735 84.5015 279.504 84.1662 279.31 83.8092C279.19 83.5592 279.13 83.4192 279.15 83.4092C279.459 83.864 279.793 84.3013 280.15 84.7192C281.208 85.7763 282.47 86.6065 283.86 87.1592C285.983 87.9016 288.06 88.7698 290.08 89.7592C291.285 90.4901 292.33 91.4582 293.149 92.6047C293.969 93.7513 294.548 95.0524 294.85 96.4292C295.205 97.7963 295.267 99.2233 295.031 100.616C294.795 102.009 294.266 103.336 293.48 104.509C292.087 106.327 290.233 107.74 288.11 108.599C286.708 109.212 285.215 109.59 283.69 109.719C283.277 109.749 282.863 109.749 282.45 109.719C282.296 109.723 282.143 109.696 282 109.639V109.639Z" fill="#263238"/>
<path d="M207.15 105.659C207.15 105.659 207.06 105.659 206.92 105.489C206.719 105.307 206.534 105.106 206.37 104.889C205.777 104.077 205.39 103.134 205.24 102.139C204.996 100.642 205.275 99.1057 206.03 97.7893C206.532 97.0102 207.195 96.347 207.973 95.8438C208.752 95.3405 209.629 95.0088 210.545 94.8707C211.462 94.7326 212.398 94.7913 213.29 95.0427C214.182 95.2942 215.01 95.7328 215.72 96.3293C216.831 97.3592 217.555 98.7396 217.77 100.239C217.922 101.247 217.829 102.275 217.5 103.239C217.411 103.495 217.294 103.74 217.15 103.969C217.06 104.129 217 104.209 216.99 104.199C216.98 104.189 217.13 103.839 217.3 103.199C217.54 102.268 217.577 101.296 217.41 100.349C217.162 98.9574 216.459 97.6874 215.41 96.7393C214.746 96.1979 213.976 95.8012 213.15 95.5746C212.323 95.3481 211.459 95.2967 210.611 95.4238C209.764 95.5509 208.953 95.8537 208.229 96.3127C207.506 96.7717 206.886 97.3769 206.41 98.0893C205.702 99.2958 205.408 100.7 205.57 102.089C205.689 103.039 206.009 103.953 206.51 104.769C206.91 105.349 207.18 105.619 207.15 105.659Z" fill="#263238"/>
<path d="M238.27 140.199C238.139 140.272 237.997 140.323 237.85 140.349C237.57 140.439 237.16 140.539 236.62 140.669C235.096 141.031 233.543 141.262 231.98 141.359C229.639 141.543 227.287 141.18 225.11 140.299C222.468 139.089 220.297 137.044 218.93 134.479C217.558 131.946 216.84 129.11 216.84 126.229C216.842 123.897 217.179 121.577 217.84 119.339C218.28 117.842 218.828 116.378 219.48 114.959C219.71 114.459 219.9 114.069 220.04 113.819C220.1 113.683 220.177 113.556 220.27 113.439C220.103 113.985 219.903 114.519 219.67 115.039C219.093 116.476 218.602 117.945 218.2 119.439C217.586 121.647 217.28 123.928 217.29 126.219C217.311 129.016 218.022 131.764 219.36 134.219C220.666 136.689 222.74 138.665 225.27 139.849C227.398 140.735 229.699 141.128 232 140.999C233.547 140.936 235.088 140.762 236.61 140.479C237.157 140.35 237.711 140.257 238.27 140.199V140.199Z" fill="#263238"/>
<path d="M216.93 115.509C216.917 115.672 216.877 115.831 216.81 115.979C216.652 116.429 216.437 116.856 216.17 117.249C215.17 118.711 213.686 119.773 211.98 120.249C210.811 120.597 209.575 120.652 208.38 120.409C207.006 120.127 205.717 119.524 204.62 118.649C203.407 117.693 202.429 116.472 201.76 115.079C201.061 113.576 200.7 111.938 200.7 110.279C200.687 107.076 201.79 103.968 203.82 101.489C204.615 100.45 205.633 99.6033 206.8 99.0113C207.967 98.4192 209.252 98.0973 210.56 98.0694C212.332 98.0602 214.04 98.7334 215.33 99.9494C215.809 100.374 216.176 100.91 216.4 101.509C216.048 101.001 215.646 100.528 215.2 100.099C213.91 98.9938 212.258 98.4028 210.56 98.4394C209.316 98.4903 208.099 98.8173 206.997 99.3967C205.896 99.9761 204.937 100.793 204.19 101.789C202.246 104.192 201.186 107.189 201.19 110.279C201.19 111.86 201.531 113.422 202.19 114.859C202.824 116.186 203.746 117.355 204.89 118.279C205.925 119.111 207.135 119.696 208.43 119.989C209.565 120.229 210.741 120.195 211.86 119.889C213.501 119.463 214.952 118.498 215.98 117.149C216.34 116.629 216.658 116.081 216.93 115.509V115.509Z" fill="#263238"/>
<path d="M502.76 223.59H177.31C169.263 223.59 162.74 230.113 162.74 238.16V443.51C162.74 451.557 169.263 458.08 177.31 458.08H502.76C510.807 458.08 517.33 451.557 517.33 443.51V238.16C517.33 230.113 510.807 223.59 502.76 223.59Z" fill="#455A64"/>
<path d="M148.88 442.939H533.05V445.659C533.05 450.38 531.175 454.908 527.836 458.246C524.498 461.584 519.971 463.459 515.25 463.459H166.68C161.959 463.459 157.432 461.584 154.094 458.246C150.755 454.908 148.88 450.38 148.88 445.659V442.939Z" fill="#455A64"/>
<path d="M506.82 232.909H172.26V430.929H506.82V232.909Z" fill="#263238"/>
<path d="M305.08 440.739L309.85 448.319H376.93L381.36 440.739H305.08Z" fill="#263238"/>
<path d="M497.35 239.609H182.42C180.614 239.609 179.15 241.073 179.15 242.879V427.019C179.15 428.825 180.614 430.289 182.42 430.289H497.35C499.156 430.289 500.62 428.825 500.62 427.019V242.879C500.62 241.073 499.156 239.609 497.35 239.609Z" fill="#EBEBEB"/>
<path d="M500.27 430.579H178.81L179.15 253.869H500.27V430.579Z" fill="#FAFAFA"/>
<path d="M205.51 247C205.51 247.508 205.359 248.006 205.076 248.429C204.793 248.851 204.391 249.181 203.921 249.375C203.451 249.569 202.934 249.62 202.435 249.52C201.936 249.42 201.478 249.174 201.119 248.813C200.76 248.453 200.516 247.994 200.418 247.495C200.32 246.996 200.372 246.479 200.569 246.009C200.765 245.54 201.096 245.139 201.519 244.858C201.943 244.577 202.441 244.428 202.95 244.43C203.287 244.43 203.621 244.496 203.932 244.626C204.243 244.755 204.526 244.944 204.764 245.183C205.002 245.422 205.19 245.705 205.318 246.017C205.446 246.329 205.511 246.663 205.51 247V247Z" fill="#263238"/>
<path d="M190 247C190 247.508 189.849 248.006 189.566 248.429C189.283 248.851 188.881 249.181 188.411 249.375C187.941 249.569 187.424 249.62 186.925 249.52C186.426 249.42 185.968 249.174 185.609 248.813C185.25 248.453 185.006 247.994 184.908 247.495C184.81 246.996 184.862 246.479 185.058 246.009C185.255 245.54 185.586 245.139 186.009 244.858C186.433 244.577 186.931 244.428 187.44 244.43C187.777 244.43 188.111 244.496 188.422 244.626C188.733 244.755 189.016 244.944 189.254 245.183C189.492 245.422 189.68 245.705 189.808 246.017C189.936 246.329 190.001 246.663 190 247V247Z" fill="#263238"/>
<path d="M197.42 247C197.42 247.508 197.269 248.006 196.986 248.429C196.703 248.851 196.301 249.181 195.831 249.375C195.361 249.569 194.844 249.62 194.345 249.52C193.846 249.42 193.388 249.174 193.029 248.813C192.67 248.453 192.426 247.994 192.328 247.495C192.23 246.996 192.282 246.479 192.479 246.009C192.675 245.54 193.006 245.139 193.43 244.858C193.853 244.577 194.351 244.428 194.86 244.43C195.54 244.432 196.191 244.704 196.671 245.186C197.151 245.668 197.42 246.32 197.42 247V247Z" fill="#263238"/>
<path d="M514.28 440.74C514.28 440.87 435.58 440.97 338.52 440.97C241.46 440.97 162.74 440.87 162.74 440.74C162.74 440.61 241.43 440.51 338.52 440.51C435.61 440.51 514.28 440.61 514.28 440.74Z" fill="#263238"/>
<path d="M380.92 396.09C380.92 396.23 361.64 396.35 337.86 396.35C314.08 396.35 294.8 396.23 294.8 396.09C294.8 395.95 314.08 395.83 337.86 395.83C361.64 395.83 380.92 396 380.92 396.09Z" fill="#E0E0E0"/>
<path d="M282.51 350.8H186.58V422.9H282.51V350.8Z" fill="#F5F5F5"/>
<path d="M186.62 422.95L220.08 378.1L240.86 406.12L254.93 391.12L282.55 422.86L186.62 422.95Z" fill="#E0E0E0"/>
<path d="M249.64 372.58C249.642 374.073 249.201 375.534 248.373 376.776C247.545 378.019 246.367 378.988 244.989 379.562C243.61 380.135 242.092 380.286 240.627 379.997C239.162 379.708 237.816 378.99 236.758 377.936C235.701 376.881 234.98 375.537 234.687 374.073C234.394 372.609 234.541 371.09 235.111 369.71C235.681 368.33 236.647 367.149 237.887 366.318C239.128 365.487 240.587 365.042 242.08 365.04C243.072 365.037 244.054 365.23 244.972 365.608C245.889 365.986 246.722 366.541 247.425 367.241C248.127 367.942 248.684 368.774 249.064 369.69C249.444 370.606 249.64 371.588 249.64 372.58V372.58Z" fill="#E0E0E0"/>
<path d="M489.5 350.909H393.57V423.009H489.5V350.909Z" fill="#F5F5F5"/>
<path d="M393.6 423.06L427.07 378.21L447.85 406.23L461.91 391.23L489.53 422.97L393.6 423.06Z" fill="#E0E0E0"/>
<path d="M456.63 372.69C456.632 374.185 456.19 375.648 455.361 376.892C454.531 378.137 453.351 379.108 451.97 379.681C450.589 380.255 449.068 380.406 447.601 380.116C446.134 379.825 444.786 379.106 443.728 378.049C442.67 376.992 441.949 375.645 441.656 374.178C441.363 372.711 441.513 371.191 442.085 369.809C442.656 368.427 443.625 367.246 444.869 366.414C446.112 365.583 447.574 365.14 449.07 365.14C451.073 365.14 452.995 365.935 454.412 367.35C455.83 368.766 456.627 370.686 456.63 372.69V372.69Z" fill="#E0E0E0"/>
<path d="M474.32 336.58C475.209 336.431 476.11 336.371 477.01 336.4C478.67 336.4 481.01 336.32 483.5 336.32H486.32L486.07 336.57C486.07 334.72 486.12 333.13 486.17 332C486.148 331.399 486.198 330.798 486.32 330.21C486.443 330.798 486.497 331.399 486.48 332C486.48 333.13 486.55 334.72 486.57 336.57V336.82H483.5C480.97 336.82 478.67 336.82 477.01 336.74C476.11 336.776 475.209 336.722 474.32 336.58Z" fill="#E0E0E0"/>
<path d="M450.32 336.579C454.313 336.233 458.328 336.233 462.32 336.579C458.328 336.926 454.313 336.926 450.32 336.579Z" fill="#E0E0E0"/>
<path d="M426.32 336.579C430.313 336.233 434.328 336.233 438.32 336.579C434.328 336.926 430.313 336.926 426.32 336.579Z" fill="#E0E0E0"/>
<path d="M402.32 336.579C406.313 336.233 410.328 336.233 414.32 336.579C410.328 336.926 406.313 336.926 402.32 336.579Z" fill="#E0E0E0"/>
<path d="M378.32 336.579C382.313 336.233 386.328 336.233 390.32 336.579C386.328 336.926 382.313 336.926 378.32 336.579Z" fill="#E0E0E0"/>
<path d="M354.32 336.579C358.313 336.233 362.328 336.233 366.32 336.579C362.328 336.926 358.313 336.926 354.32 336.579Z" fill="#E0E0E0"/>
<path d="M330.32 336.579C334.313 336.233 338.328 336.233 342.32 336.579C338.328 336.926 334.313 336.926 330.32 336.579Z" fill="#E0E0E0"/>
<path d="M306.32 336.579C310.313 336.233 314.328 336.233 318.32 336.579C314.328 336.926 310.313 336.926 306.32 336.579Z" fill="#E0E0E0"/>
<path d="M282.32 336.579C284.309 336.322 286.316 336.235 288.32 336.319C290.324 336.235 292.331 336.322 294.32 336.579C292.331 336.837 290.324 336.924 288.32 336.839C286.316 336.923 284.309 336.836 282.32 336.579V336.579Z" fill="#E0E0E0"/>
<path d="M258.32 336.579C260.309 336.322 262.316 336.235 264.32 336.319C266.324 336.235 268.331 336.322 270.32 336.579C268.331 336.837 266.324 336.924 264.32 336.839C262.316 336.923 260.309 336.836 258.32 336.579V336.579Z" fill="#E0E0E0"/>
<path d="M234.32 336.579C236.309 336.322 238.316 336.235 240.32 336.319C242.324 336.235 244.331 336.322 246.32 336.579C244.331 336.837 242.324 336.924 240.32 336.839C238.316 336.923 236.309 336.836 234.32 336.579V336.579Z" fill="#E0E0E0"/>
<path d="M210.32 336.579C212.309 336.322 214.316 336.235 216.32 336.319C218.324 336.235 220.331 336.322 222.32 336.579C220.331 336.837 218.324 336.924 216.32 336.839C214.316 336.923 212.309 336.836 210.32 336.579V336.579Z" fill="#E0E0E0"/>
<path d="M186.34 336.569C188.33 336.322 190.336 336.239 192.34 336.319C194.344 336.235 196.351 336.322 198.34 336.579C196.351 336.837 194.344 336.924 192.34 336.839C190.336 336.92 188.33 336.836 186.34 336.589V336.589V336.569Z" fill="#E0E0E0"/>
<path d="M186.34 312.569C186.687 316.562 186.687 320.577 186.34 324.569C185.993 320.577 185.993 316.562 186.34 312.569V312.569Z" fill="#E0E0E0"/>
<path d="M186.34 288.569C186.597 290.558 186.684 292.566 186.6 294.569C186.684 296.573 186.597 298.58 186.34 300.569C186.077 298.581 185.99 296.573 186.08 294.569C185.99 292.566 186.077 290.558 186.34 288.569V288.569Z" fill="#E0E0E0"/>
<path d="M186.34 264.569C186.597 266.558 186.684 268.566 186.6 270.569C186.684 272.573 186.597 274.58 186.34 276.569C186.077 274.581 185.99 272.573 186.08 270.569C185.99 268.566 186.077 266.558 186.34 264.569V264.569Z" fill="#E0E0E0"/>
<path d="M207.16 261.389C205.171 261.646 203.164 261.733 201.16 261.649C199.156 261.734 197.149 261.647 195.16 261.389C197.148 261.126 199.156 261.039 201.16 261.129C203.164 261.039 205.172 261.126 207.16 261.389Z" fill="#E0E0E0"/>
<path d="M231.16 261.389C229.171 261.646 227.164 261.733 225.16 261.649C223.156 261.734 221.149 261.647 219.16 261.389C221.148 261.126 223.156 261.039 225.16 261.129C227.164 261.039 229.172 261.126 231.16 261.389V261.389Z" fill="#E0E0E0"/>
<path d="M255.16 261.389C253.171 261.646 251.164 261.733 249.16 261.649C247.156 261.734 245.149 261.647 243.16 261.389C245.148 261.126 247.156 261.039 249.16 261.129C251.164 261.039 253.172 261.126 255.16 261.389Z" fill="#E0E0E0"/>
<path d="M279.16 261.389C277.171 261.646 275.164 261.733 273.16 261.649C271.156 261.734 269.149 261.647 267.16 261.389C269.148 261.126 271.156 261.039 273.16 261.129C275.164 261.039 277.172 261.126 279.16 261.389Z" fill="#E0E0E0"/>
<path d="M303.16 261.389C299.168 261.736 295.153 261.736 291.16 261.389C293.148 261.126 295.156 261.039 297.16 261.129C299.164 261.039 301.172 261.126 303.16 261.389Z" fill="#E0E0E0"/>
<path d="M327.16 261.39C323.168 261.737 319.153 261.737 315.16 261.39C319.153 261.043 323.168 261.043 327.16 261.39Z" fill="#E0E0E0"/>
<path d="M351.16 261.39C347.168 261.737 343.153 261.737 339.16 261.39C343.153 261.043 347.168 261.043 351.16 261.39Z" fill="#E0E0E0"/>
<path d="M375.16 261.39C371.168 261.737 367.153 261.737 363.16 261.39C367.153 261.043 371.168 261.043 375.16 261.39Z" fill="#E0E0E0"/>
<path d="M399.16 261.39C395.168 261.737 391.153 261.737 387.16 261.39C391.153 261.043 395.168 261.043 399.16 261.39Z" fill="#E0E0E0"/>
<path d="M423.16 261.39C419.168 261.737 415.153 261.737 411.16 261.39C415.153 261.043 419.168 261.043 423.16 261.39Z" fill="#E0E0E0"/>
<path d="M447.16 261.39C443.168 261.737 439.153 261.737 435.16 261.39C439.153 261.043 443.168 261.043 447.16 261.39Z" fill="#E0E0E0"/>
<path d="M471.16 261.39C467.168 261.737 463.153 261.737 459.16 261.39C463.153 261.043 467.168 261.043 471.16 261.39Z" fill="#E0E0E0"/>
<path d="M486.32 270.219C486.063 268.23 485.976 266.223 486.06 264.219C486.06 263.219 486.06 262.279 486.06 261.389L486.29 261.619C485.231 261.659 484.172 261.582 483.13 261.389C484.171 261.191 485.231 261.113 486.29 261.159H486.52V261.399C486.52 262.289 486.52 263.229 486.52 264.229C486.629 266.228 486.562 268.232 486.32 270.219V270.219Z" fill="#E0E0E0"/>
<path d="M486.32 294.22C486.063 292.231 485.976 290.223 486.06 288.22C485.976 286.216 486.063 284.209 486.32 282.22C486.583 284.208 486.67 286.216 486.58 288.22C486.67 290.223 486.583 292.231 486.32 294.22V294.22Z" fill="#E0E0E0"/>
<path d="M486.32 318.22C485.973 314.227 485.973 310.212 486.32 306.22C486.667 310.212 486.667 314.227 486.32 318.22V318.22Z" fill="#E0E0E0"/>
<path d="M380.92 420.4C380.92 420.55 361.64 420.66 337.86 420.66C314.08 420.66 294.8 420.55 294.8 420.4C294.8 420.25 314.08 420.14 337.86 420.14C361.64 420.14 380.92 420.26 380.92 420.4Z" fill="#E0E0E0"/>
<path d="M380.92 409.28C380.92 409.42 361.64 409.54 337.86 409.54C314.08 409.54 294.8 409.42 294.8 409.28C294.8 409.14 314.08 409.02 337.86 409.02C361.64 409.02 380.92 409.14 380.92 409.28Z" fill="#E0E0E0"/>
<path d="M117.16 323.529H111.98V463.259H117.16V323.529Z" fill="#263238"/>
<path d="M114.57 328.51C131.205 328.51 144.69 315.024 144.69 298.39C144.69 281.755 131.205 268.27 114.57 268.27C97.9351 268.27 84.45 281.755 84.45 298.39C84.45 315.024 97.9351 328.51 114.57 328.51Z" fill="#A8171B"/>
<path d="M141.69 298C141.659 297.855 141.642 297.708 141.64 297.56C141.64 297.25 141.64 296.82 141.55 296.28C141.55 295.99 141.55 295.68 141.49 295.33C141.43 294.98 141.37 294.61 141.31 294.2C141.191 293.257 141.001 292.324 140.74 291.41C140.109 288.879 139.097 286.458 137.74 284.23C135.96 281.273 133.632 278.683 130.88 276.6C127.3 273.877 123.093 272.099 118.646 271.428C114.198 270.757 109.654 271.215 105.43 272.76C104.229 273.192 103.06 273.707 101.93 274.3C101.36 274.61 100.81 274.97 100.25 275.3C99.6854 275.636 99.1442 276.011 98.63 276.42C97.5755 277.218 96.5734 278.083 95.63 279.01C94.6787 279.987 93.7965 281.03 92.99 282.13C91.3238 284.375 90.0305 286.873 89.16 289.53C88.2549 292.264 87.7694 295.12 87.72 298C87.7556 300.876 88.2208 303.731 89.1 306.47C89.9739 309.13 91.2705 311.632 92.94 313.88C93.7484 314.976 94.6269 316.018 95.57 317C96.5298 317.928 97.5486 318.793 98.62 319.59C99.1342 319.999 99.6754 320.373 100.24 320.71C100.8 321.04 101.35 321.4 101.92 321.71C103.048 322.307 104.218 322.822 105.42 323.25C111.3 325.387 117.74 325.411 123.635 323.318C129.531 321.225 134.514 317.146 137.73 311.78C139.089 309.556 140.1 307.139 140.73 304.61C140.991 303.692 141.181 302.756 141.3 301.81C141.37 301.41 141.44 301.03 141.48 300.68C141.52 300.33 141.48 300.02 141.54 299.74C141.58 299.187 141.61 298.757 141.63 298.45C141.632 298.302 141.649 298.155 141.68 298.01C141.693 298.156 141.693 298.304 141.68 298.45C141.68 298.77 141.68 299.2 141.68 299.74C141.68 300.033 141.68 300.367 141.68 300.74C141.68 301.09 141.58 301.46 141.53 301.88C141.421 302.831 141.244 303.774 141 304.7C140.377 307.262 139.365 309.714 138 311.97C136.032 315.304 133.377 318.182 130.212 320.411C127.046 322.64 123.442 324.17 119.64 324.9C114.836 325.804 109.877 325.403 105.28 323.74C104.052 323.304 102.856 322.782 101.7 322.18C101.13 321.87 100.57 321.51 100 321.18C99.4158 320.827 98.8577 320.433 98.33 320C97.2343 319.196 96.1952 318.317 95.22 317.37C94.2545 316.374 93.3558 315.315 92.53 314.2C90.8302 311.911 89.5069 309.366 88.61 306.66C86.7303 301.053 86.7303 294.987 88.61 289.38C89.5069 286.674 90.8302 284.129 92.53 281.84C93.3563 280.729 94.255 279.673 95.22 278.68C96.1937 277.716 97.2329 276.821 98.33 276C98.8502 275.582 99.4018 275.204 99.98 274.87C100.55 274.53 101.11 274.16 101.68 273.87C102.838 273.272 104.034 272.751 105.26 272.31C109.858 270.649 114.817 270.252 119.62 271.16C123.428 271.885 127.037 273.414 130.207 275.646C133.377 277.877 136.033 280.76 138 284.1C139.367 286.359 140.379 288.814 141 291.38C141.245 292.306 141.422 293.248 141.53 294.2C141.58 294.61 141.65 294.99 141.68 295.34C141.71 295.69 141.68 296 141.68 296.34C141.68 296.89 141.68 297.34 141.68 297.63C141.693 297.753 141.696 297.877 141.69 298Z" fill="white"/>
<path d="M130.26 294.63H98.8899V301.17H130.26V294.63Z" fill="#FAFAFA"/>
<path d="M518.402 259.772L225.006 283.326L231.844 368.502L525.24 344.948L518.402 259.772Z" fill="white"/>
<path d="M525.26 344.91C525.16 343.68 522.67 313.42 518.26 259.75L518.43 259.9L225.06 283.57L225.29 283.29C227.65 312.69 229.95 341.29 232.13 368.46L231.86 368.23L441.56 351.5L525.26 344.91L523.83 345.04L519.59 345.4L503.14 346.75L441.75 351.75L231.89 368.75H231.64V368.49C229.45 341.34 227.15 312.72 224.79 283.32V283.06H225.05L518.4 259.57H518.57V259.73C522.79 313.41 525.17 343.68 525.26 344.91Z" fill="#263238"/>
<path d="M325.707 285.508L233.057 291.993L237.932 361.633L330.582 355.148L325.707 285.508Z" fill="#A8171B"/>
<path d="M440.82 344.88C438.845 345.303 436.838 345.557 434.82 345.64L434.54 345.4V345.11V344.81C434.54 344.6 434.54 344.41 434.54 344.21C434.54 343.83 434.48 343.46 434.46 343.09C434.46 342.43 434.39 341.8 434.35 341.18C434.265 340.596 434.265 340.004 434.35 339.42C434.545 339.977 434.656 340.56 434.68 341.15C434.75 341.76 434.82 342.39 434.9 343.05C434.9 343.41 434.97 343.79 435 344.17L435.06 344.76V345.07V345.35L434.78 345.11C436.783 344.864 438.804 344.787 440.82 344.88Z" fill="#E0E0E0"/>
<path d="M468 342.59C465.77 343.033 463.511 343.31 461.24 343.42C458.982 343.703 456.705 343.807 454.43 343.73C456.66 343.287 458.919 343.01 461.19 342.9C463.448 342.617 465.725 342.513 468 342.59V342.59Z" fill="#E0E0E0"/>
<path d="M495.1 340.3C492.87 340.743 490.611 341.02 488.34 341.13C486.081 341.408 483.805 341.511 481.53 341.44C483.76 340.997 486.019 340.72 488.29 340.61C490.548 340.327 492.825 340.223 495.1 340.3V340.3Z" fill="#E0E0E0"/>
<path d="M514.14 332.67C514.574 334.626 514.832 336.618 514.91 338.62C514.43 339.19 514.77 338.78 514.67 338.91H514.36H514.06H513.46L512.34 338.99L510.44 339.1C509.853 339.185 509.257 339.185 508.67 339.1C509.231 338.907 509.817 338.796 510.41 338.77L512.3 338.55L513.42 338.44L514.02 338.39H514.32H514.62C514.52 338.51 514.86 338.11 514.39 338.67C514.137 336.681 514.053 334.673 514.14 332.67V332.67Z" fill="#E0E0E0"/>
<path d="M512.25 310.28C512.935 313.97 513.27 317.717 513.25 321.47C512.837 319.64 512.592 317.775 512.52 315.9C512.262 314.039 512.172 312.158 512.25 310.28Z" fill="#E0E0E0"/>
<path d="M510.36 287.9C510.78 289.73 511.028 291.595 511.1 293.47C511.341 295.333 511.412 297.215 511.31 299.09C510.891 297.258 510.647 295.389 510.58 293.51C510.339 291.651 510.265 289.773 510.36 287.9V287.9Z" fill="#E0E0E0"/>
<path d="M502.93 271.23C504.905 270.808 506.912 270.553 508.93 270.47L509.21 270.71V271V271.3C509.21 271.51 509.21 271.7 509.21 271.9C509.21 272.28 509.26 272.65 509.29 273.02C509.29 273.68 509.36 274.31 509.39 274.93C509.478 275.513 509.478 276.106 509.39 276.69C509.196 276.132 509.084 275.549 509.06 274.96C508.99 274.35 508.92 273.72 508.84 273.06C508.84 272.7 508.77 272.32 508.73 271.94L508.68 271.35V271.04V270.76L508.97 271C506.967 271.246 504.946 271.323 502.93 271.23V271.23Z" fill="#E0E0E0"/>
<path d="M475.8 273.52C478.03 273.076 480.289 272.798 482.56 272.69C484.815 272.407 487.089 272.303 489.36 272.38C487.131 272.825 484.871 273.102 482.6 273.21C480.345 273.494 478.071 273.597 475.8 273.52V273.52Z" fill="#E0E0E0"/>
<path d="M448.66 275.81C450.89 275.366 453.149 275.088 455.42 274.98C457.679 274.703 459.955 274.599 462.23 274.67C459.997 275.113 457.734 275.391 455.46 275.5C453.205 275.784 450.931 275.887 448.66 275.81V275.81Z" fill="#E0E0E0"/>
<path d="M429.61 283.44C429.189 281.482 428.934 279.491 428.85 277.49C429.32 276.92 428.98 277.33 429.09 277.21H429.39H429.7L430.29 277.16L431.41 277.08L433.32 276.97C433.907 276.885 434.503 276.885 435.09 276.97C434.529 277.161 433.943 277.272 433.35 277.3L431.45 277.52L430.33 277.63L429.74 277.68H429.44H429.13L429.37 277.4C429.632 279.402 429.712 281.423 429.61 283.44V283.44Z" fill="#E0E0E0"/>
<path d="M431.5 305.83C431.088 303.996 430.844 302.128 430.77 300.25C430.523 298.39 430.452 296.512 430.56 294.64C430.973 296.47 431.218 298.335 431.29 300.21C431.537 302.072 431.608 303.954 431.5 305.83Z" fill="#E0E0E0"/>
<path d="M433.39 328.21C432.977 326.379 432.732 324.515 432.66 322.64C432.413 320.777 432.342 318.895 432.45 317.02C432.863 318.853 433.107 320.721 433.18 322.6C433.427 324.459 433.498 326.337 433.39 328.21V328.21Z" fill="#E0E0E0"/>
<path d="M237.68 360.51L266.89 315.04L288.81 340.63L301.34 325.22L330.1 353.94L237.68 360.51Z" fill="#A8171B"/>
<path d="M295 307.72C295.103 309.16 294.777 310.599 294.062 311.854C293.348 313.108 292.278 314.123 290.986 314.77C289.695 315.416 288.241 315.665 286.809 315.485C285.376 315.305 284.029 314.704 282.938 313.758C281.847 312.813 281.06 311.565 280.679 310.172C280.297 308.779 280.336 307.305 280.793 305.935C281.249 304.565 282.101 303.361 283.242 302.476C284.382 301.59 285.76 301.063 287.2 300.96C289.13 300.825 291.035 301.461 292.497 302.728C293.959 303.995 294.859 305.791 295 307.72V307.72Z" fill="#A8171B"/>
<g opacity="0.2">
<path d="M237.68 360.51L266.89 315.04L288.81 340.63L301.34 325.22L330.1 353.94L237.68 360.51Z" fill="black"/>
</g>
<g opacity="0.2">
<path d="M295 307.72C295.103 309.16 294.777 310.599 294.062 311.854C293.348 313.108 292.278 314.123 290.986 314.77C289.695 315.416 288.241 315.665 286.809 315.485C285.376 315.305 284.029 314.704 282.938 313.758C281.847 312.813 281.06 311.565 280.679 310.172C280.297 308.779 280.336 307.305 280.793 305.935C281.249 304.565 282.101 303.361 283.242 302.476C284.382 301.59 285.76 301.063 287.2 300.96C289.13 300.825 291.035 301.461 292.497 302.728C293.959 303.995 294.859 305.791 295 307.72V307.72Z" fill="black"/>
</g>
<path d="M421.51 296.44C421.51 296.59 403.56 298.36 381.39 300.44C359.22 302.52 341.23 304.03 341.21 303.88C341.19 303.73 359.21 301.97 381.34 299.88C403.47 297.79 421.5 296.3 421.51 296.44Z" fill="#263238"/>
<path d="M423.84 309.8C423.84 309.95 405.68 311.74 383.27 313.8C360.86 315.86 342.66 317.43 342.64 317.29C342.62 317.15 360.79 315.35 383.22 313.29C405.65 311.23 423.82 309.66 423.84 309.8Z" fill="#263238"/>
<path d="M426.16 323.17C426.16 323.31 407.81 325.12 385.16 327.17C362.51 329.22 344.16 330.84 344.16 330.7C344.16 330.56 362.5 328.75 385.16 326.65C407.82 324.55 426.15 323 426.16 323.17Z" fill="#263238"/>
<path d="M426.64 336.41C426.64 336.56 408.27 338.41 385.59 340.47C362.91 342.53 344.49 344.14 344.48 344C344.47 343.86 362.85 342 385.54 339.95C408.23 337.9 426.63 336.27 426.64 336.41Z" fill="#263238"/>
<path d="M381.676 287.621L339.402 291.015L339.67 294.364L381.944 290.97L381.676 287.621Z" fill="#A8171B"/>
<path d="M472.82 318.51C472.68 318.51 472.13 313.59 471.6 307.51C471.07 301.43 470.76 296.46 470.91 296.45C471.06 296.44 471.59 301.37 472.12 307.45C472.65 313.53 473 318.5 472.82 318.51Z" fill="#E0E0E0"/>
<path d="M482.06 306.94C482.06 307.08 477.32 307.5 471.46 307.87C465.6 308.24 460.83 308.43 460.83 308.29C464.345 307.796 467.883 307.482 471.43 307.35C477.29 307 482.05 306.8 482.06 306.94Z" fill="#E0E0E0"/>
<path d="M518.42 259.73C518.42 259.73 518.18 259.66 517.71 259.48L515.71 258.7L507.83 255.64L478.7 244.23L381.42 205.89H381.63L369.32 212L267.32 262.53L236.4 277.78L228 281.9L225.8 282.96C225.31 283.2 225.05 283.31 225.05 283.31L225.78 282.91L227.95 281.81L236.33 277.6L267.19 262.19L369.11 211.52L381.42 205.41H381.52H381.63L478.85 243.9L507.85 255.46L515.69 258.61L517.69 259.44L518.42 259.73Z" fill="#263238"/>
<path d="M458.68 120C458.152 118.835 457.302 117.847 456.23 117.15C455.158 116.454 453.909 116.08 452.631 116.071C451.352 116.063 450.098 116.421 449.017 117.103C447.936 117.785 447.073 118.762 446.53 119.92L436.08 120.78L446.64 141.61L453.26 129.43C453.988 129.361 454.698 129.169 455.36 128.86C456.16 128.496 456.88 127.978 457.48 127.336C458.08 126.694 458.547 125.94 458.855 125.117C459.163 124.295 459.307 123.419 459.277 122.541C459.247 121.663 459.044 120.8 458.68 120V120Z" fill="#263238"/>
<path d="M398.36 89.84L405.18 86.93L388.73 82.79C388.003 81.6553 386.95 80.7667 385.709 80.2406C384.468 79.7146 383.097 79.5756 381.776 79.8418C380.455 80.1081 379.245 80.7672 378.304 81.7328C377.364 82.6984 376.738 83.9255 376.507 85.2534C376.276 86.5812 376.451 87.9478 377.01 89.1743C377.569 90.4007 378.485 91.4297 379.639 92.1265C380.793 92.8233 382.13 93.1554 383.475 93.0793C384.821 93.0032 386.112 92.5224 387.18 91.7L402.8 101.26L398.36 89.84Z" fill="#263238"/>
<path d="M530 294.3V294.16L417.11 83.7203L416.47 82.5303L398.69 90.6403L483.82 315L483.87 315.14L534.57 395.73L535.57 395.58L536.74 395.41L537.66 395.27L527.17 378.6L533.3 362.81L549.53 368.81L556.68 392.46L557.53 392.34L558.61 392.18L559.61 392.04L530 294.3ZM537.3 328.39L517.04 323.19L528.79 300.24L537.3 328.39ZM515.25 322.73L490.33 316.33L527.11 299.57L515.25 322.73ZM524.66 290.37L498.77 283.21L509.39 261.9L524.66 290.37ZM497 282.73L474.21 276.43L507.76 261.14L497 282.73ZM506.23 256L482.37 247.68L490.88 227.38L506.23 256ZM480.67 247.09L459.67 239.78L489.36 226.26L480.67 247.09ZM487.5 221.09L465.79 211.71L472.22 192.59L487.5 221.09ZM464.13 211L445.53 203L470.68 191.54L464.13 211ZM469.13 186.79L469.01 186.85L449.48 176.29L453.82 158.24L469.13 186.79ZM449.87 150.9L432.87 139.46L435.12 123.34L449.87 150.9ZM431.17 138.34L417.48 129.14L433.48 121.85L431.17 138.34ZM416.66 89.0003L431.12 116L416.25 103.47L416.66 89.0003ZM413.9 122.63L403.4 95.0003L414.4 104.28L413.9 122.63ZM414.49 101.95L402.68 92.0003L414.93 86.4203L414.49 101.95ZM416.18 105.74L430.49 117.74L415.64 124.51L416.18 105.74ZM417.11 131.08L430.9 140.34L428.12 160.13L417.11 131.08ZM432.56 141.46L449.13 152.59L429.76 161.41L432.56 141.46ZM452.33 156.57L447.81 175.38L431 166.27L452.33 156.57ZM431.33 168.51L447.39 177.19L442.44 197.79L431.33 168.51ZM449.03 178.08L466.94 187.76L444.19 198.1L449.03 178.08ZM445.03 204.7L463.54 212.7L456.27 234.33L445.03 204.7ZM465.2 213.41L485.95 222.41L457.88 235.19L465.2 213.41ZM458.96 241.41L479.96 248.73L470.4 271.56L458.96 241.41ZM481.67 249.33L504.39 257.25L472.21 271.9L481.67 249.33ZM472.81 277.92L496.19 284.38L484.31 308.22L472.81 277.92ZM498 284.86L523.41 291.86L486.01 308.86L498 284.86ZM489 317.86L514.48 324.4L504.89 343.12L489 317.86ZM516.27 324.86L537 330.18L506.28 344.18L516.27 324.86ZM526.05 376.76L512.44 355.12L531.68 362.25L526.05 376.76ZM532.33 360.57L510.87 352.57L510.34 351.74L540.34 338.09L540.65 339.09L532.33 360.57ZM534.02 361.19L541.42 342L548.9 366.74L534.02 361.19Z" fill="#263238"/>
<path d="M381.35 183.29C381.35 183.29 381.35 182.69 381.35 181.51C381.35 180.33 381.35 178.59 381.35 176.31C381.35 171.74 381.35 165.02 381.29 156.41C381.29 139.18 381.24 114.41 381.2 84.1103V83.9203H381.39L413 80.5703H413.11L413.19 80.6603L495.64 172.81L615.64 307.13L652 347.86L661.86 358.96L664.41 361.85C664.98 362.5 665.27 362.85 665.27 362.85C665.27 362.85 664.96 362.53 664.37 361.85C663.78 361.17 662.91 360.25 661.78 358.99C659.5 356.47 656.16 352.75 651.85 347.99L615.41 307.35L495.26 173.15L412.86 81.0003L413.05 81.0803L381.37 84.3603L381.55 84.1603C381.55 114.44 381.49 139.23 381.46 156.46C381.46 165.07 381.46 171.79 381.46 176.36C381.46 178.64 381.46 180.36 381.46 181.56C381.46 182.76 381.35 183.29 381.35 183.29Z" fill="#263238"/>
<path d="M383.17 155.04H378.87C378.66 155.04 378.49 155.21 378.49 155.42V165.51C378.49 165.72 378.66 165.89 378.87 165.89H383.17C383.38 165.89 383.55 165.72 383.55 165.51V155.42C383.55 155.21 383.38 155.04 383.17 155.04Z" fill="#263238"/>
<path d="M389.61 167.57H373C372.509 167.57 372.039 167.375 371.692 167.028C371.345 166.681 371.15 166.211 371.15 165.72V165.72C371.15 165.229 371.345 164.759 371.692 164.412C372.039 164.065 372.509 163.87 373 163.87H389.62C390.111 163.87 390.581 164.065 390.928 164.412C391.275 164.759 391.47 165.229 391.47 165.72V165.72C391.47 165.964 391.422 166.205 391.328 166.43C391.235 166.656 391.098 166.86 390.925 167.032C390.752 167.204 390.547 167.34 390.321 167.432C390.095 167.525 389.854 167.571 389.61 167.57V167.57Z" fill="#263238"/>
<path d="M382.51 197.29L382.45 194.92L380 196C379.915 196.875 379.915 197.755 380 198.63C380.004 198.771 380.035 198.91 380.09 199.04C380.242 199.236 380.452 199.38 380.69 199.45C381.763 199.859 382.654 200.639 383.2 201.65C383.38 202.017 383.479 202.419 383.492 202.828C383.505 203.236 383.431 203.643 383.275 204.021C383.119 204.399 382.885 204.74 382.588 205.021C382.29 205.302 381.937 205.516 381.55 205.65C380.789 205.88 379.967 205.799 379.266 205.424C378.565 205.049 378.041 204.411 377.81 203.65C377.81 203.24 377.81 202.65 377.25 202.65C376.44 202.57 376.09 203.75 376.11 204.37C376.24 207.96 379.62 209.1 381.05 209.15C382.021 209.216 382.991 209.008 383.85 208.55C384.529 208.158 385.115 207.623 385.567 206.983C386.02 206.342 386.328 205.611 386.47 204.84C387.25 200.12 382.26 197.59 382.51 197.29Z" fill="#263238"/>
<path d="M384.6 196.11L395.22 170.56C395.44 170.027 395.526 169.448 395.469 168.874C395.412 168.301 395.215 167.75 394.895 167.27C394.574 166.791 394.141 166.398 393.633 166.125C393.124 165.853 392.557 165.711 391.98 165.71H370.75C370.173 165.708 369.604 165.849 369.094 166.121C368.584 166.392 368.15 166.786 367.829 167.266C367.508 167.746 367.311 168.298 367.256 168.873C367.2 169.448 367.287 170.027 367.51 170.56L378.12 196.11C378.387 196.75 378.837 197.296 379.413 197.68C379.99 198.065 380.667 198.27 381.36 198.27C382.053 198.27 382.731 198.065 383.307 197.68C383.884 197.296 384.334 196.75 384.6 196.11Z" fill="#E0E0E0"/>
<path d="M371.83 167.52L369.08 170.26C369.08 170.36 369.08 170.47 369.13 170.57L370.03 172.73L375.24 167.52H371.83Z" fill="#A8171B"/>
<path d="M382.08 167.52H378.66L371.03 175.15L372.04 177.56L382.08 167.52Z" fill="#A8171B"/>
<path d="M389.38 180.72L391.8 174.88L377.05 189.63L378.05 192.04L389.38 180.72Z" fill="#A8171B"/>
<path d="M387 186.57L379.11 194.46L379.37 195.1C379.484 195.386 379.658 195.644 379.881 195.856C380.103 196.068 380.369 196.23 380.66 196.33L384.57 192.41L387 186.57Z" fill="#A8171B"/>
<path d="M388.91 167.52H385.5L373.04 179.97L374.04 182.39L388.91 167.52Z" fill="#A8171B"/>
<path d="M393.75 169.51C393.716 169.077 393.545 168.666 393.263 168.335C392.982 168.005 392.602 167.772 392.18 167.67L375 184.8L376 187.22L393.75 169.51Z" fill="#A8171B"/>
<path d="M654.77 357.34H672.61C673.31 357.34 673.982 357.618 674.477 358.113C674.972 358.608 675.25 359.28 675.25 359.98V368.12H652.13V360C652.127 359.651 652.194 359.306 652.325 358.983C652.457 358.661 652.651 358.367 652.896 358.12C653.142 357.873 653.434 357.677 653.755 357.543C654.077 357.409 654.422 357.34 654.77 357.34V357.34Z" fill="#263238"/>
<path d="M611.73 365.44H607.94V342.9C607.942 341.903 608.097 340.911 608.4 339.96L610.31 334.06C610.322 334.037 610.34 334.018 610.362 334.004C610.384 333.991 610.409 333.983 610.435 333.983C610.461 333.983 610.486 333.991 610.508 334.004C610.531 334.018 610.548 334.037 610.56 334.06L612.79 338.06L612.2 339.89C611.89 340.86 611.732 341.872 611.73 342.89V365.44Z" fill="#263238"/>
<path d="M705.14 369.54C704.614 368.252 703.77 367.119 702.688 366.245C701.605 365.37 700.32 364.784 698.95 364.54L604.15 364.49V348.74C604.15 348.236 604.051 347.737 603.858 347.272C603.664 346.807 603.381 346.384 603.025 346.028C602.668 345.673 602.245 345.391 601.779 345.199C601.313 345.007 600.814 344.909 600.31 344.91H554.5C553.688 344.91 552.897 345.167 552.241 345.645C551.585 346.123 551.098 346.797 550.85 347.57L549.48 351.91H554.58C555.163 351.91 555.739 352.037 556.267 352.282C556.796 352.527 557.264 352.885 557.64 353.33C558.008 353.768 558.271 354.283 558.41 354.838C558.548 355.392 558.559 355.971 558.44 356.53L553.54 379.78C553.332 380.651 552.837 381.427 552.136 381.984C551.434 382.541 550.566 382.846 549.67 382.85H539.94C539.811 384.332 539.899 385.824 540.2 387.28L540.74 389.61L515.66 394.54C515.461 394.58 515.277 394.676 515.131 394.818C514.986 394.961 514.885 395.142 514.84 395.34L512.48 401.68C512.329 401.968 512.215 402.274 512.14 402.59C511.64 404.68 512.01 408.18 513.27 408.18H540.14L539 409.54L537.48 414.26H708.17C708.21 399 707.81 376 705.14 369.54ZM586.83 355.12L584.31 378C584.31 378.29 584.23 378.58 584.18 378.86C583.674 381.122 582.402 383.139 580.58 384.571C578.758 386.003 576.497 386.762 574.18 386.72H562.92C562.403 386.72 561.892 386.604 561.425 386.38C560.958 386.157 560.547 385.832 560.222 385.43C559.897 385.027 559.666 384.557 559.547 384.053C559.427 383.55 559.421 383.026 559.53 382.52L564.83 355.06C565.009 354.192 565.482 353.412 566.168 352.851C566.855 352.29 567.714 351.983 568.6 351.98H584C584.406 351.98 584.808 352.066 585.179 352.233C585.55 352.399 585.881 352.641 586.152 352.944C586.423 353.247 586.627 353.603 586.751 353.99C586.874 354.378 586.915 354.786 586.87 355.19L586.83 355.12Z" fill="#A8171B"/>
<path d="M628.81 425.64L556.16 426.64C555.69 426.64 554.85 425.24 554.85 424.77V416.66C554.85 416.432 554.941 416.213 555.102 416.052C555.263 415.89 555.482 415.8 555.71 415.8H628.81C628.923 415.8 629.034 415.822 629.138 415.865C629.242 415.909 629.336 415.972 629.415 416.052C629.494 416.132 629.556 416.227 629.598 416.331C629.64 416.436 629.661 416.547 629.66 416.66V424.77C629.663 424.883 629.643 424.996 629.601 425.101C629.56 425.207 629.498 425.303 629.418 425.384C629.339 425.465 629.245 425.529 629.14 425.573C629.036 425.617 628.923 425.64 628.81 425.64V425.64Z" fill="#455A64"/>
<path d="M586.83 355.12L584.31 378C584.31 378.29 584.23 378.57 584.18 378.86C583.682 381.125 582.412 383.147 580.588 384.579C578.764 386.011 576.499 386.764 574.18 386.71H562.94C562.422 386.708 561.911 386.591 561.444 386.366C560.978 386.142 560.567 385.816 560.242 385.413C559.917 385.009 559.687 384.538 559.567 384.034C559.447 383.531 559.441 383.006 559.55 382.5L564.85 355.04C565.031 354.173 565.504 353.394 566.19 352.833C566.876 352.272 567.734 351.964 568.62 351.96H584C584.407 351.962 584.809 352.049 585.18 352.216C585.551 352.383 585.882 352.627 586.153 352.93C586.423 353.234 586.627 353.591 586.751 353.979C586.874 354.366 586.915 354.776 586.87 355.18L586.83 355.12Z" fill="#A8171B"/>
<g style="mix-blend-mode:screen">
<path d="M708.23 416.24C708.305 415.621 708.226 414.992 708 414.41H537.69C537.465 414.992 537.383 415.62 537.45 416.24H708.23Z" fill="#A8171B"/>
</g>
<path d="M550.85 347.56L540.6 379.41C539.779 381.953 539.641 384.667 540.2 387.28L544.59 407.64H604.15V348.74C604.15 347.722 603.746 346.745 603.025 346.025C602.305 345.305 601.329 344.9 600.31 344.9H554.5C553.689 344.903 552.9 345.161 552.244 345.639C551.589 346.117 551.101 346.789 550.85 347.56Z" fill="#A8171B"/>
<path d="M562.94 386.65C562.423 386.65 561.912 386.534 561.445 386.31C560.978 386.087 560.567 385.762 560.242 385.36C559.917 384.957 559.686 384.487 559.567 383.983C559.447 383.48 559.441 382.956 559.55 382.45L564.85 354.99C565.029 354.122 565.502 353.342 566.188 352.781C566.875 352.22 567.734 351.913 568.62 351.91H584C584.409 351.915 584.812 352.006 585.183 352.179C585.553 352.351 585.883 352.6 586.15 352.91C586.421 353.214 586.625 353.571 586.749 353.959C586.873 354.346 586.914 354.756 586.87 355.16L584.31 378C584.31 378.29 584.23 378.58 584.18 378.86C583.674 381.122 582.402 383.139 580.58 384.571C578.758 386.003 576.497 386.762 574.18 386.72L562.94 386.65Z" fill="#455A64"/>
<path d="M539.94 382.9C540.036 381.777 540.264 380.669 540.62 379.6L549.52 351.96H554.61C555.192 351.958 555.767 352.084 556.296 352.327C556.824 352.571 557.293 352.927 557.67 353.37C558.04 353.809 558.305 354.325 558.445 354.882C558.586 355.438 558.597 356.019 558.48 356.58L553.57 379.82C553.364 380.691 552.872 381.468 552.172 382.027C551.472 382.585 550.605 382.893 549.71 382.9H539.94Z" fill="#455A64"/>
<path d="M708.31 418.77H537.67C536.37 418.77 536.37 414.05 537.67 414.05H708.31C709.62 414.05 709.62 418.77 708.31 418.77Z" fill="#263238"/>
<path d="M604.3 365.74C604.3 365.74 604.3 365.83 604.3 366V366.74C604.3 367.43 604.3 368.38 604.24 369.58C604.16 372.09 604.05 375.65 603.92 380.03C603.79 384.41 603.58 389.71 603.38 395.53C603.32 396.99 603.27 398.53 603.21 400.01C603.235 401.613 602.893 403.2 602.21 404.65C601.788 405.387 601.223 406.033 600.548 406.548C599.873 407.063 599.102 407.438 598.28 407.65C596.651 408.089 594.967 408.291 593.28 408.25L558.77 407.6L548.32 407.34L545.48 407.24H544.74C544.657 407.254 544.573 407.254 544.49 407.24C544.573 407.225 544.657 407.225 544.74 407.24H548.32L558.78 407.34L593.28 407.83C594.919 407.879 596.555 407.69 598.14 407.27C598.894 407.084 599.603 406.749 600.227 406.285C600.85 405.822 601.375 405.239 601.77 404.57C602.437 403.193 602.779 401.681 602.77 400.15C602.84 398.63 602.9 397.15 602.96 395.67C603.2 389.85 603.42 384.6 603.61 380.18C603.8 375.76 603.98 372.24 604.1 369.73C604.16 368.53 604.22 367.58 604.25 366.89C604.25 366.59 604.25 366.35 604.31 366.16C604.264 366.025 604.26 365.878 604.3 365.74Z" fill="#263238"/>
<path d="M555.67 407.88C555.52 407.88 555.41 402.88 555.41 396.71C555.41 390.54 555.52 385.53 555.67 385.53C555.82 385.53 555.93 390.53 555.93 396.71C555.93 402.89 555.81 407.88 555.67 407.88Z" fill="#263238"/>
<path d="M564.6 345.09C564.574 345.63 564.511 346.168 564.41 346.7C564.26 347.7 564.01 349.23 563.68 351.07C563.03 354.75 562.04 359.82 560.8 365.38C559.56 370.94 558.28 375.96 557.3 379.56C556.81 381.37 556.4 382.82 556.09 383.82C555.964 384.348 555.79 384.864 555.57 385.36C555.641 384.822 555.751 384.291 555.9 383.77C556.17 382.67 556.52 381.22 556.95 379.47C557.83 375.84 559.04 370.83 560.29 365.27C561.54 359.71 562.58 354.66 563.29 351L564.18 346.67C564.266 346.13 564.407 345.601 564.6 345.09V345.09Z" fill="#263238"/>
<path d="M584.35 395.74C584.678 395.663 584.992 395.535 585.28 395.36C585.589 395.128 585.813 394.801 585.92 394.43C586.043 393.945 585.978 393.431 585.74 392.99C585.589 392.736 585.371 392.529 585.11 392.391C584.849 392.254 584.555 392.191 584.26 392.21H581.99H576.8C576.414 392.217 576.045 392.367 575.763 392.631C575.482 392.896 575.31 393.255 575.28 393.64C575.222 394 575.29 394.368 575.472 394.683C575.654 394.999 575.94 395.241 576.28 395.37C576.44 395.43 576.609 395.46 576.78 395.46H578.45H580.45C581.66 395.46 582.64 395.51 583.31 395.54C583.663 395.525 584.016 395.559 584.36 395.64C584.016 395.722 583.663 395.755 583.31 395.74C582.64 395.74 581.66 395.8 580.45 395.82H578.45H576.8C576.576 395.822 576.353 395.788 576.14 395.72C575.692 395.56 575.312 395.252 575.063 394.846C574.814 394.441 574.71 393.962 574.77 393.49C574.793 392.976 575.014 392.49 575.387 392.134C575.759 391.778 576.255 391.58 576.77 391.58H581.96H584.23C584.593 391.568 584.952 391.655 585.269 391.831C585.586 392.007 585.849 392.266 586.03 392.58C586.179 392.861 586.261 393.172 586.27 393.49C586.288 393.764 586.254 394.039 586.17 394.3C586.025 394.718 585.738 395.071 585.36 395.3C585.132 395.447 584.871 395.533 584.6 395.55C584.44 395.78 584.35 395.75 584.35 395.74Z" fill="#A8171B"/>
<path d="M697.09 371.199C697.09 371.349 690.09 371.459 681.51 371.459C672.93 371.459 665.93 371.349 665.93 371.199C665.93 371.049 672.93 370.939 681.51 370.939C690.09 370.939 697.09 371.059 697.09 371.199Z" fill="#263238"/>
<path d="M697.09 374.3C697.09 374.45 690.09 374.57 681.51 374.57C672.93 374.57 665.93 374.45 665.93 374.3C665.93 374.15 672.93 374.04 681.51 374.04C690.09 374.04 697.09 374.16 697.09 374.3Z" fill="#263238"/>
<path d="M697.09 377.41C697.09 377.55 690.09 377.67 681.51 377.67C672.93 377.67 665.93 377.55 665.93 377.41C665.93 377.27 672.93 377.15 681.51 377.15C690.09 377.15 697.09 377.26 697.09 377.41Z" fill="#263238"/>
<path d="M697.09 380.51C697.09 380.65 690.09 380.77 681.51 380.77C672.93 380.77 665.93 380.65 665.93 380.51C665.93 380.37 672.93 380.25 681.51 380.25C690.09 380.25 697.09 380.36 697.09 380.51Z" fill="#263238"/>
<path d="M697.09 383.61C697.09 383.75 690.09 383.87 681.51 383.87C672.93 383.87 665.93 383.75 665.93 383.61C665.93 383.47 672.93 383.35 681.51 383.35C690.09 383.35 697.09 383.46 697.09 383.61Z" fill="#263238"/>
<path d="M697.09 386.71C697.09 386.85 690.09 386.97 681.51 386.97C672.93 386.97 665.93 386.85 665.93 386.71C665.93 386.57 672.93 386.45 681.51 386.45C690.09 386.45 697.09 386.56 697.09 386.71Z" fill="#263238"/>
<path d="M697.09 389.81C697.09 389.95 690.09 390.07 681.51 390.07C672.93 390.07 665.93 389.95 665.93 389.81C665.93 389.67 672.93 389.55 681.51 389.55C690.09 389.55 697.09 389.66 697.09 389.81Z" fill="#263238"/>
<path d="M520.2 463.46C510.85 463.46 502.98 454.46 502.98 445.08C502.98 435.7 511.21 427.84 520.56 427.84L671.19 421C675.013 420.79 678.817 421.669 682.161 423.535C685.505 425.401 688.251 428.176 690.08 431.54C692.309 435.834 692.906 440.79 691.76 445.49C687.76 463.69 672.65 463.49 666.76 463.08C660.87 462.67 520.2 463.46 520.2 463.46Z" fill="#263238"/>
<path d="M520.2 459.04C527.971 459.04 534.27 452.741 534.27 444.97C534.27 437.2 527.971 430.9 520.2 430.9C512.429 430.9 506.13 437.2 506.13 444.97C506.13 452.741 512.429 459.04 520.2 459.04Z" fill="#455A64"/>
<path d="M670.24 460.31C680.292 460.31 688.44 452.162 688.44 442.11C688.44 432.059 680.292 423.91 670.24 423.91C660.188 423.91 652.04 432.059 652.04 442.11C652.04 452.162 660.188 460.31 670.24 460.31Z" fill="#455A64"/>
<path d="M672.27 424.49L671.88 424.55L670.73 424.68L666.31 425.12C662.46 425.5 656.9 426 650.01 426.56C636.25 427.69 617.21 429 596.16 429.93C575.11 430.86 556.01 431.23 542.16 431.31C535.25 431.31 529.67 431.31 525.8 431.31L521.36 431.25H520.2C520.071 431.266 519.94 431.266 519.81 431.25H520.2H521.36H525.8L542.16 431.09C555.96 430.91 575.04 430.48 596.09 429.56C617.14 428.64 636.18 427.38 649.94 426.34L666.25 425.07L670.68 424.72L671.84 424.65C671.975 424.577 672.12 424.523 672.27 424.49V424.49Z" fill="#455A64"/>
<path d="M666.48 458.59C666.48 458.73 633.73 458.85 593.33 458.85C552.93 458.85 520.18 458.73 520.18 458.59C520.18 458.45 552.92 458.33 593.33 458.33C633.74 458.33 666.48 458.44 666.48 458.59Z" fill="#455A64"/>
<path d="M545.29 407.39C544.893 406.229 544.559 405.047 544.29 403.85C543.68 401.66 542.79 398.64 541.89 395.27C541.078 392.406 540.45 389.494 540.01 386.55C539.895 385.651 539.842 384.746 539.85 383.84C539.842 383.502 539.886 383.165 539.98 382.84C540.06 382.84 539.98 384.25 540.37 386.48C540.76 388.71 541.49 391.78 542.37 395.13C543.25 398.48 544.11 401.52 544.63 403.75C544.89 404.86 545.09 405.75 545.19 406.39C545.272 406.717 545.305 407.053 545.29 407.39V407.39Z" fill="#A8171B"/>
<path d="M660.22 453.35C659.841 453.167 659.488 452.935 659.17 452.66C658.282 451.946 657.495 451.115 656.83 450.19C655.83 448.812 655.088 447.263 654.64 445.62C654.057 443.605 653.961 441.481 654.361 439.422C654.761 437.364 655.645 435.43 656.94 433.78C657.973 432.429 659.24 431.274 660.68 430.37C661.648 429.762 662.695 429.288 663.79 428.96C664.184 428.825 664.594 428.741 665.01 428.71C663.563 429.219 662.177 429.89 660.88 430.71C659.512 431.632 658.308 432.778 657.32 434.1C656.093 435.705 655.254 437.572 654.869 439.555C654.484 441.537 654.563 443.583 655.1 445.53C655.502 447.125 656.179 448.638 657.1 450C658.005 451.236 659.052 452.36 660.22 453.35Z" fill="#FAFAFA"/>
<path d="M581.16 367.84C578.656 369.97 576.046 371.973 573.34 373.84C570.735 375.834 568.024 377.687 565.22 379.39C567.724 377.259 570.334 375.257 573.04 373.39C575.645 371.396 578.356 369.543 581.16 367.84V367.84Z" fill="white"/>
<path d="M582.36 363.59C580.194 365.419 577.92 367.115 575.55 368.67C573.277 370.364 570.903 371.917 568.44 373.32C570.609 371.495 572.883 369.798 575.25 368.24C577.524 366.547 579.898 364.994 582.36 363.59V363.59Z" fill="white"/>
<path d="M553 370.15C551.965 371.195 550.807 372.108 549.55 372.87C548.391 373.781 547.129 374.553 545.79 375.17C546.836 374.134 547.997 373.222 549.25 372.45C550.405 371.538 551.664 370.766 553 370.15V370.15Z" fill="white"/>
<path d="M555.05 366.17C552.53 368.559 549.78 370.693 546.84 372.54C549.355 370.145 552.105 368.011 555.05 366.17Z" fill="white"/>
<path d="M586.45 390.5C582.731 390.847 578.989 390.847 575.27 390.5C578.989 390.154 582.731 390.154 586.45 390.5V390.5Z" fill="#A8171B"/>
<path d="M517.4 456.91C516.983 456.884 516.572 456.796 516.18 456.65C515.084 456.301 514.047 455.792 513.1 455.14C511.693 454.167 510.488 452.931 509.55 451.5C508.365 449.752 507.662 447.721 507.513 445.614C507.363 443.507 507.773 441.398 508.7 439.5C509.422 437.95 510.441 436.557 511.7 435.4C512.544 434.618 513.502 433.967 514.54 433.47C514.911 433.278 515.304 433.134 515.71 433.04C514.351 433.75 513.091 434.634 511.96 435.67C510.776 436.816 509.816 438.172 509.13 439.67C508.26 441.502 507.878 443.528 508.02 445.551C508.161 447.575 508.823 449.527 509.94 451.22C510.828 452.621 511.971 453.842 513.31 454.82C514.575 455.695 515.95 456.398 517.4 456.91Z" fill="#FAFAFA"/>
<path d="M538.74 401.4C538.74 401.54 533.32 401.66 526.63 401.66C519.94 401.66 514.51 401.54 514.51 401.4C514.51 401.26 519.93 401.14 526.63 401.14C533.33 401.14 538.74 401.26 538.74 401.4Z" fill="white"/>
<path d="M429.52 105.1L420.4 85.5099C419.729 84.0692 418.781 82.7747 417.61 81.7004C416.439 80.6262 415.067 79.7931 413.574 79.249C412.081 78.7048 410.495 78.4601 408.907 78.5289C407.319 78.5977 405.761 78.9786 404.32 79.6499V79.6499C402.879 80.3208 401.585 81.2689 400.51 82.4402C399.436 83.6114 398.603 84.9828 398.059 86.476C397.515 87.9693 397.27 89.5551 397.339 91.1429C397.408 92.7307 397.789 94.2894 398.46 95.7299L407.59 115.31C407.63 115.401 407.688 115.483 407.76 115.552C407.833 115.62 407.919 115.672 408.012 115.706C408.106 115.74 408.205 115.754 408.305 115.748C408.404 115.741 408.501 115.715 408.59 115.67L429.19 106.07C429.361 105.984 429.492 105.834 429.554 105.653C429.616 105.471 429.603 105.273 429.52 105.1V105.1Z" fill="#A8171B"/>
<path d="M79.9 368.59H74.76V463.08H79.9V368.59Z" fill="#E0E0E0"/>
<path d="M82.5299 365.35C82.5299 366.374 82.2261 367.376 81.6569 368.228C81.0878 369.08 80.2787 369.744 79.3322 370.136C78.3857 370.528 77.3442 370.63 76.3394 370.43C75.3345 370.231 74.4115 369.737 73.6871 369.013C72.9627 368.288 72.4693 367.365 72.2695 366.36C72.0696 365.356 72.1722 364.314 72.5642 363.368C72.9563 362.421 73.6202 361.612 74.4721 361.043C75.3239 360.474 76.3254 360.17 77.3499 360.17C78.7237 360.17 80.0413 360.716 81.0127 361.687C81.9842 362.659 82.5299 363.976 82.5299 365.35V365.35Z" fill="#A8171B"/>
<path d="M182.04 368.59H176.9V463.08H182.04V368.59Z" fill="#E0E0E0"/>
<path d="M184.67 365.35C184.67 366.374 184.366 367.376 183.797 368.228C183.228 369.08 182.419 369.744 181.472 370.136C180.526 370.528 179.484 370.63 178.479 370.43C177.475 370.231 176.552 369.737 175.827 369.013C175.103 368.288 174.609 367.365 174.409 366.36C174.21 365.356 174.312 364.314 174.704 363.368C175.096 362.421 175.76 361.612 176.612 361.043C177.464 360.474 178.465 360.17 179.49 360.17C180.864 360.17 182.181 360.716 183.153 361.687C184.124 362.659 184.67 363.976 184.67 365.35Z" fill="#A8171B"/>
<path d="M191.78 377.71H60.09V401.27H191.78V377.71Z" fill="#A8171B"/>
<path d="M74.99 377.7L74.76 378.1L61.23 401.27H60.09V377.7H74.99Z" fill="#F5F5F5"/>
<path d="M108.28 377.7L94.5 401.27H76.51L81.98 391.91L90.28 377.7H108.28Z" fill="#F5F5F5"/>
<path d="M141.55 377.7L127.78 401.27H109.78L123.55 377.7H141.55Z" fill="#F5F5F5"/>
<path d="M174.81 377.71L161.04 401.27H143.05L156.82 377.71H174.81Z" fill="#F5F5F5"/>
<path d="M191.78 377.71V401.27H176.32L190.1 377.71H191.78Z" fill="#F5F5F5"/>
<path d="M191.78 414.1H60.09V437.66H191.78V414.1Z" fill="#A8171B"/>
<path d="M74.99 414.11L74.76 414.5L61.23 437.67H60.09V414.11H74.99Z" fill="#F5F5F5"/>
<path d="M108.28 414.11L94.5 437.67H76.51L81.98 428.31L90.28 414.11H108.28Z" fill="#F5F5F5"/>
<path d="M141.55 414.11L127.78 437.67H109.78L123.55 414.11H141.55Z" fill="#F5F5F5"/>
<path d="M174.81 414.11L161.04 437.67H143.05L156.82 414.11H174.81Z" fill="#F5F5F5"/>
<path d="M191.78 414.11V437.67H176.32L190.1 414.11H191.78Z" fill="#F5F5F5"/>
<path d="M191.78 401.269C191.78 401.269 191.78 401.129 191.78 400.859C191.78 400.589 191.78 400.189 191.78 399.679C191.78 398.629 191.78 397.099 191.78 395.099C191.78 391.099 191.73 385.219 191.7 377.709L191.84 377.839L60.1 377.999L60.36 377.739V401.299L60.1 401.039L153.85 401.149L181.65 401.229H189.16H191.11H191.79H191.14H189.22H181.77L154.03 401.299L60.1 401.409H59.84V377.439H60.11L191.79 377.569H191.92V377.709C191.92 385.249 191.86 391.149 191.85 395.179C191.85 397.179 191.85 398.689 191.85 399.729C191.85 400.229 191.85 400.609 191.85 400.889C191.85 401.169 191.78 401.269 191.78 401.269Z" fill="#263238"/>
<path d="M191.78 437.67C191.78 437.67 191.78 437.52 191.78 437.26C191.78 437 191.78 436.59 191.78 436.08C191.78 435.03 191.78 433.5 191.78 431.5C191.78 427.5 191.73 421.62 191.7 414.1L191.84 414.24L60.16 414.36L60.42 414.1V437.67L60.16 437.41L153.91 437.52L181.71 437.6H189.22H191.17C191.61 437.6 191.85 437.6 191.85 437.6H191.2H189.28H181.83L154.09 437.68L60.16 437.79H59.9V413.84H60.17L191.85 413.97H191.98V414.1C191.98 421.65 191.92 427.55 191.91 431.58C191.91 433.58 191.91 435.09 191.91 436.13C191.91 436.63 191.91 437.01 191.91 437.29C191.91 437.57 191.78 437.67 191.78 437.67Z" fill="#263238"/>
<path d="M701.78 463.46C701.78 463.6 556.36 463.72 377.02 463.72C197.68 463.72 52.22 463.6 52.22 463.46C52.22 463.32 197.61 463.2 377.02 463.2C556.43 463.2 701.78 463.31 701.78 463.46Z" fill="#263238"/>
</svg>
